G04 #@! TF.FileFunction,Copper,L1,Top,Signal*
%FSLAX46Y46*%
G04 Gerber Fmt 4.6, Leading zero omitted, Abs format (unit mm)*
G04 Created by KiCad (PCBNEW 4.0.6-e0-6349~53~ubuntu16.04.1) date Sat Jul 15 19:45:57 2017*
%MOMM*%
%LPD*%
G01*
G04 APERTURE LIST*
%ADD10C,0.100000*%
%ADD11O,2.000000X3.000000*%
%ADD12O,1.600000X2.000000*%
%ADD13R,1.250000X1.000000*%
%ADD14R,0.800000X0.750000*%
%ADD15R,0.750000X0.800000*%
%ADD16C,1.524000*%
%ADD17C,2.700020*%
%ADD18R,1.727200X2.032000*%
%ADD19O,1.727200X2.032000*%
%ADD20C,4.800600*%
%ADD21R,4.800600X4.800600*%
%ADD22R,2.032000X2.032000*%
%ADD23O,2.032000X2.032000*%
%ADD24R,0.320000X0.500000*%
%ADD25R,0.250000X0.450000*%
%ADD26R,0.450000X0.250000*%
%ADD27R,2.900000X2.900000*%
%ADD28C,1.700000*%
%ADD29C,1.000000*%
%ADD30C,0.600000*%
%ADD31C,0.400000*%
%ADD32C,0.250000*%
%ADD33C,1.200000*%
%ADD34C,1.000000*%
G04 APERTURE END LIST*
D10*
D11*
X97650000Y-91059000D03*
D12*
X94650000Y-84059000D03*
X94650000Y-98059000D03*
X92150000Y-98059000D03*
X89650000Y-84059000D03*
X89650000Y-98059000D03*
D11*
X86650000Y-91059000D03*
D13*
X74422000Y-61611000D03*
X74422000Y-63611000D03*
D14*
X75870500Y-69278500D03*
X74370500Y-69278500D03*
D15*
X52197000Y-98032000D03*
X52197000Y-96532000D03*
X62484000Y-97905000D03*
X62484000Y-96405000D03*
X87249000Y-97905000D03*
X87249000Y-96405000D03*
X97155000Y-97905000D03*
X97155000Y-96405000D03*
D16*
X62039500Y-60388500D03*
X59499500Y-60388500D03*
X59499500Y-58389520D03*
X62039500Y-58389520D03*
D17*
X66768980Y-55689500D03*
X54770020Y-55689500D03*
D18*
X61849000Y-73025000D03*
D19*
X64389000Y-73025000D03*
X66929000Y-73025000D03*
X69469000Y-73025000D03*
D18*
X80010000Y-73088500D03*
D19*
X82550000Y-73088500D03*
X85090000Y-73088500D03*
X87630000Y-73088500D03*
D20*
X105727500Y-54038500D03*
D21*
X105727500Y-60134500D03*
D20*
X100647500Y-56324500D03*
D22*
X103251000Y-73152000D03*
D23*
X100711000Y-73152000D03*
D24*
X57646000Y-94115000D03*
X56646000Y-94115000D03*
X57146000Y-94115000D03*
X56146000Y-94115000D03*
X57146000Y-95115000D03*
X57646000Y-95115000D03*
X56646000Y-95115000D03*
X56146000Y-95115000D03*
X92825000Y-94242000D03*
X91825000Y-94242000D03*
X92325000Y-94242000D03*
X91325000Y-94242000D03*
X92325000Y-95242000D03*
X92825000Y-95242000D03*
X91825000Y-95242000D03*
X91325000Y-95242000D03*
D25*
X83034000Y-61317500D03*
X82534000Y-61317500D03*
X82034000Y-61317500D03*
X81534000Y-61317500D03*
X81034000Y-61317500D03*
X80534000Y-61317500D03*
X80034000Y-61317500D03*
D26*
X79034000Y-62317500D03*
X79034000Y-62817500D03*
X79034000Y-63317500D03*
X79034000Y-63817500D03*
X79034000Y-64317500D03*
X79034000Y-64817500D03*
X79034000Y-65317500D03*
D25*
X80034000Y-66317500D03*
X80534000Y-66317500D03*
X81034000Y-66317500D03*
X81534000Y-66317500D03*
X82034000Y-66317500D03*
X82534000Y-66317500D03*
X83034000Y-66317500D03*
D26*
X84034000Y-65317500D03*
X84034000Y-64817500D03*
X84034000Y-64317500D03*
X84034000Y-63817500D03*
X84034000Y-63317500D03*
X84034000Y-62817500D03*
X84034000Y-62317500D03*
D27*
X81534000Y-63817500D03*
D11*
X62650000Y-91059000D03*
D12*
X59650000Y-84059000D03*
X59650000Y-98059000D03*
X57150000Y-98059000D03*
X54650000Y-84059000D03*
X54650000Y-98059000D03*
D11*
X51650000Y-91059000D03*
D28*
X69596000Y-89535000D03*
X69596000Y-92075000D03*
X72136000Y-89535000D03*
X72136000Y-92075000D03*
X74676000Y-89535000D03*
X74676000Y-92075000D03*
X77216000Y-89535000D03*
X77216000Y-92075000D03*
X79756000Y-89535000D03*
X79756000Y-92075000D03*
D29*
X60452000Y-63944500D03*
X72644000Y-56959500D03*
X72580500Y-63881000D03*
D30*
X87249000Y-95123000D03*
X62484000Y-95250000D03*
X77152500Y-69088000D03*
X76454000Y-59436000D03*
X58420000Y-92456000D03*
X55626000Y-92583000D03*
X70866000Y-88392000D03*
X91821000Y-89027000D03*
X91821000Y-92075000D03*
X65151000Y-60642500D03*
X69088000Y-60706000D03*
X62611000Y-68262500D03*
X69342000Y-58039000D03*
D31*
X74422000Y-61611000D02*
X70596000Y-61611000D01*
X60325000Y-63944500D02*
X60452000Y-63944500D01*
X68262500Y-63944500D02*
X60325000Y-63944500D01*
X70596000Y-61611000D02*
X68262500Y-63944500D01*
D32*
X80034000Y-61317500D02*
X80034000Y-60285500D01*
X77105000Y-61325000D02*
X77105000Y-61611000D01*
X78232000Y-60198000D02*
X77105000Y-61325000D01*
X79946500Y-60198000D02*
X78232000Y-60198000D01*
X80034000Y-60285500D02*
X79946500Y-60198000D01*
X79034000Y-62317500D02*
X77811500Y-62317500D01*
X77105000Y-61611000D02*
X74422000Y-61611000D01*
X77811500Y-62317500D02*
X77105000Y-61611000D01*
D31*
X89650000Y-84059000D02*
X89650000Y-75108500D01*
X89650000Y-75108500D02*
X87630000Y-73088500D01*
X59944000Y-55689500D02*
X54770020Y-55689500D01*
X59499500Y-58389520D02*
X59499500Y-56007000D01*
X59817000Y-55689500D02*
X59944000Y-55689500D01*
X59944000Y-55689500D02*
X66768980Y-55689500D01*
X59499500Y-56007000D02*
X59817000Y-55689500D01*
X86423500Y-55689500D02*
X94932500Y-55689500D01*
X94932500Y-55689500D02*
X95758000Y-56515000D01*
D33*
X105727500Y-54038500D02*
X105346500Y-54038500D01*
X105346500Y-54038500D02*
X102870000Y-51562000D01*
X95758000Y-53911500D02*
X95758000Y-56515000D01*
X98107500Y-51562000D02*
X95758000Y-53911500D01*
X102870000Y-51562000D02*
X98107500Y-51562000D01*
X95758000Y-56515000D02*
X95758000Y-68199000D01*
X95758000Y-68199000D02*
X100711000Y-73152000D01*
D31*
X74422000Y-63611000D02*
X72850500Y-63611000D01*
X72707500Y-56896000D02*
X72707500Y-55689500D01*
X72644000Y-56959500D02*
X72707500Y-56896000D01*
X72850500Y-63611000D02*
X72580500Y-63881000D01*
X87630000Y-73088500D02*
X87630000Y-56896000D01*
X87630000Y-56896000D02*
X86423500Y-55689500D01*
X86423500Y-55689500D02*
X81407000Y-55689500D01*
D32*
X82034000Y-61317500D02*
X82034000Y-59444000D01*
X81407000Y-55689500D02*
X72707500Y-55689500D01*
X72707500Y-55689500D02*
X66768980Y-55689500D01*
X82550000Y-56832500D02*
X81407000Y-55689500D01*
X82550000Y-58928000D02*
X82550000Y-56832500D01*
X82034000Y-59444000D02*
X82550000Y-58928000D01*
X82034000Y-61317500D02*
X82034000Y-63317500D01*
X82034000Y-63317500D02*
X81534000Y-63817500D01*
X69469000Y-73025000D02*
X70624000Y-73025000D01*
X70624000Y-73025000D02*
X74370500Y-69278500D01*
X74370500Y-69278500D02*
X74370500Y-63662500D01*
X74370500Y-63662500D02*
X74422000Y-63611000D01*
X87249000Y-96405000D02*
X87249000Y-95123000D01*
X97155000Y-96405000D02*
X97155000Y-91554000D01*
X97155000Y-91554000D02*
X97650000Y-91059000D01*
X52197000Y-96532000D02*
X52197000Y-91606000D01*
X52197000Y-91606000D02*
X51650000Y-91059000D01*
X62484000Y-96405000D02*
X62484000Y-95250000D01*
X75870500Y-69278500D02*
X76962000Y-69278500D01*
X76962000Y-69278500D02*
X77152500Y-69088000D01*
X80534000Y-61317500D02*
X80534000Y-59388500D01*
X80010000Y-71945500D02*
X80010000Y-73088500D01*
X77152500Y-69088000D02*
X80010000Y-71945500D01*
X80486500Y-59436000D02*
X76454000Y-59436000D01*
X80534000Y-59388500D02*
X80486500Y-59436000D01*
X52197000Y-98032000D02*
X54623000Y-98032000D01*
X54623000Y-98032000D02*
X54650000Y-98059000D01*
X56146000Y-95115000D02*
X56146000Y-96254000D01*
X56146000Y-96254000D02*
X54650000Y-97750000D01*
X54650000Y-97750000D02*
X54650000Y-98059000D01*
X56646000Y-95115000D02*
X56146000Y-95115000D01*
X59650000Y-98059000D02*
X62330000Y-98059000D01*
X62330000Y-98059000D02*
X62484000Y-97905000D01*
X57646000Y-95115000D02*
X57646000Y-96000000D01*
X59178000Y-96647000D02*
X59650000Y-97119000D01*
X58293000Y-96647000D02*
X59178000Y-96647000D01*
X57646000Y-96000000D02*
X58293000Y-96647000D01*
X59650000Y-97119000D02*
X59650000Y-98059000D01*
X57146000Y-95115000D02*
X57646000Y-95115000D01*
X59650000Y-98059000D02*
X59650000Y-97119000D01*
X89650000Y-98059000D02*
X87403000Y-98059000D01*
X87403000Y-98059000D02*
X87249000Y-97905000D01*
X91325000Y-95242000D02*
X91825000Y-95242000D01*
X89650000Y-98059000D02*
X89650000Y-97675000D01*
X89650000Y-97675000D02*
X91325000Y-96000000D01*
X91325000Y-96000000D02*
X91325000Y-95242000D01*
X94650000Y-98059000D02*
X97001000Y-98059000D01*
X97001000Y-98059000D02*
X97155000Y-97905000D01*
X94650000Y-98059000D02*
X94630000Y-98059000D01*
X94630000Y-98059000D02*
X92825000Y-96254000D01*
X92825000Y-96254000D02*
X92825000Y-95242000D01*
X92325000Y-95242000D02*
X92825000Y-95242000D01*
X72136000Y-89535000D02*
X73406000Y-90805000D01*
X90932000Y-92837000D02*
X90932000Y-92710000D01*
X89916000Y-93853000D02*
X90932000Y-92837000D01*
X86614000Y-93853000D02*
X89916000Y-93853000D01*
X85471000Y-94996000D02*
X86614000Y-93853000D01*
X73533000Y-94996000D02*
X85471000Y-94996000D01*
X73406000Y-94869000D02*
X73533000Y-94996000D01*
X73406000Y-90805000D02*
X73406000Y-94869000D01*
X92325000Y-94242000D02*
X92325000Y-92841000D01*
X92325000Y-92841000D02*
X92837000Y-92329000D01*
X92837000Y-92329000D02*
X92837000Y-91821000D01*
X92837000Y-91821000D02*
X92329000Y-91313000D01*
X92329000Y-91313000D02*
X91440000Y-91313000D01*
X91440000Y-91313000D02*
X90932000Y-91821000D01*
X90932000Y-91821000D02*
X90932000Y-92710000D01*
X91325000Y-93103000D02*
X91325000Y-94242000D01*
X90932000Y-92710000D02*
X91325000Y-93103000D01*
X91313000Y-94230000D02*
X91325000Y-94242000D01*
X57146000Y-94115000D02*
X57146000Y-92714000D01*
X57404000Y-92456000D02*
X58420000Y-92456000D01*
X57146000Y-92714000D02*
X57404000Y-92456000D01*
X56146000Y-94115000D02*
X56146000Y-93103000D01*
X64516000Y-93472000D02*
X59182000Y-93472000D01*
X67183000Y-90805000D02*
X64516000Y-93472000D01*
X70739000Y-90805000D02*
X67183000Y-90805000D01*
X70739000Y-90805000D02*
X72009000Y-89535000D01*
X59182000Y-93218000D02*
X59182000Y-93472000D01*
X58420000Y-92456000D02*
X59182000Y-93218000D01*
X56146000Y-93103000D02*
X55626000Y-92583000D01*
X72136000Y-89535000D02*
X72009000Y-89535000D01*
X56646000Y-94115000D02*
X56646000Y-90293000D01*
X67945000Y-87884000D02*
X69596000Y-89535000D01*
X59055000Y-87884000D02*
X67945000Y-87884000D01*
X56646000Y-90293000D02*
X59055000Y-87884000D01*
X54650000Y-84059000D02*
X54650000Y-85892000D01*
X69596000Y-87122000D02*
X70866000Y-88392000D01*
X55880000Y-87122000D02*
X69596000Y-87122000D01*
X54650000Y-85892000D02*
X55880000Y-87122000D01*
X94650000Y-84059000D02*
X94650000Y-87087000D01*
X76200000Y-87376000D02*
X74676000Y-88900000D01*
X94361000Y-87376000D02*
X76200000Y-87376000D01*
X94650000Y-87087000D02*
X94361000Y-87376000D01*
X74676000Y-88900000D02*
X74676000Y-89535000D01*
X91825000Y-94242000D02*
X91825000Y-92079000D01*
X77216000Y-88519000D02*
X77216000Y-89535000D01*
X77724000Y-88011000D02*
X77216000Y-88519000D01*
X90805000Y-88011000D02*
X77724000Y-88011000D01*
X91821000Y-89027000D02*
X90805000Y-88011000D01*
X91825000Y-92079000D02*
X91821000Y-92075000D01*
X81034000Y-61317500D02*
X81034000Y-58999500D01*
X64897000Y-60388500D02*
X62039500Y-60388500D01*
X65151000Y-60642500D02*
X64897000Y-60388500D01*
X70167500Y-60706000D02*
X69088000Y-60706000D01*
X72199500Y-58674000D02*
X70167500Y-60706000D01*
X80708500Y-58674000D02*
X72199500Y-58674000D01*
X81034000Y-58999500D02*
X80708500Y-58674000D01*
D31*
X66929000Y-73025000D02*
X66929000Y-69596000D01*
X65595500Y-68262500D02*
X62611000Y-68262500D01*
X66929000Y-69596000D02*
X65595500Y-68262500D01*
D32*
X81534000Y-61317500D02*
X81534000Y-58483500D01*
X81089500Y-58039000D02*
X69342000Y-58039000D01*
X81534000Y-58483500D02*
X81089500Y-58039000D01*
D33*
X105727500Y-60134500D02*
X105727500Y-70675500D01*
X105727500Y-70675500D02*
X103251000Y-73152000D01*
D32*
X57646000Y-94115000D02*
X67556000Y-94115000D01*
X67556000Y-94115000D02*
X69596000Y-92075000D01*
X92825000Y-94242000D02*
X92825000Y-93230000D01*
X79375000Y-94234000D02*
X77216000Y-92075000D01*
X84963000Y-94234000D02*
X79375000Y-94234000D01*
X85852000Y-93345000D02*
X84963000Y-94234000D01*
X88519000Y-93345000D02*
X85852000Y-93345000D01*
X91186000Y-90678000D02*
X88519000Y-93345000D01*
X92583000Y-90678000D02*
X91186000Y-90678000D01*
X93472000Y-91567000D02*
X92583000Y-90678000D01*
X93472000Y-92583000D02*
X93472000Y-91567000D01*
X92825000Y-93230000D02*
X93472000Y-92583000D01*
X84034000Y-63817500D02*
X85344000Y-63817500D01*
X82550000Y-70485000D02*
X82550000Y-73088500D01*
X85471000Y-67564000D02*
X82550000Y-70485000D01*
X85471000Y-63944500D02*
X85471000Y-67564000D01*
X85344000Y-63817500D02*
X85471000Y-63944500D01*
X84034000Y-63317500D02*
X85542500Y-63317500D01*
X85090000Y-70548500D02*
X85090000Y-73088500D01*
X85979000Y-69659500D02*
X85090000Y-70548500D01*
X85979000Y-63754000D02*
X85979000Y-69659500D01*
X85542500Y-63317500D02*
X85979000Y-63754000D01*
D34*
G36*
X102481138Y-51741684D02*
X102059407Y-52687593D01*
X101426721Y-52424879D01*
X99875086Y-52423525D01*
X98441044Y-53016059D01*
X97342915Y-54112273D01*
X96747879Y-55545279D01*
X96746525Y-57096914D01*
X97339059Y-58530956D01*
X98435273Y-59629085D01*
X99868279Y-60224121D01*
X101419914Y-60225475D01*
X101797814Y-60069330D01*
X101797814Y-62534800D01*
X101902407Y-63090667D01*
X102230924Y-63601196D01*
X102732183Y-63943692D01*
X103327200Y-64064186D01*
X103627500Y-64064186D01*
X103627500Y-69805652D01*
X102826538Y-70606614D01*
X102235000Y-70606614D01*
X101679133Y-70711207D01*
X101521007Y-70812959D01*
X101249613Y-70694326D01*
X101153896Y-70675289D01*
X100761000Y-71011584D01*
X100761000Y-71862496D01*
X100705614Y-72136000D01*
X100705614Y-74168000D01*
X100761000Y-74462353D01*
X100761000Y-75292416D01*
X101153896Y-75628711D01*
X101249613Y-75609674D01*
X101516939Y-75492819D01*
X101639983Y-75576892D01*
X102235000Y-75697386D01*
X104267000Y-75697386D01*
X104822867Y-75592793D01*
X105333396Y-75264276D01*
X105675892Y-74763017D01*
X105796386Y-74168000D01*
X105796386Y-73576462D01*
X107212424Y-72160424D01*
X107667647Y-71479135D01*
X107827500Y-70675500D01*
X107827500Y-64064186D01*
X108127800Y-64064186D01*
X108683667Y-63959593D01*
X109194196Y-63631076D01*
X109536692Y-63129817D01*
X109657186Y-62534800D01*
X109657186Y-57734200D01*
X109552593Y-57178333D01*
X109224076Y-56667804D01*
X108813287Y-56387123D01*
X108973862Y-56335316D01*
X109605701Y-54918153D01*
X109647119Y-53367070D01*
X109091811Y-51918206D01*
X108973862Y-51741684D01*
X108534717Y-51600000D01*
X118400000Y-51600000D01*
X118400000Y-98400000D01*
X99040148Y-98400000D01*
X99059386Y-98305000D01*
X99059386Y-97505000D01*
X98998241Y-97180041D01*
X99030000Y-97103369D01*
X99030000Y-96830000D01*
X98655000Y-96455000D01*
X98636827Y-96455000D01*
X98626276Y-96438604D01*
X98503918Y-96355000D01*
X98655000Y-96355000D01*
X99030000Y-95980000D01*
X99030000Y-95706631D01*
X98801638Y-95155318D01*
X98379681Y-94733361D01*
X97828368Y-94505000D01*
X97580000Y-94505000D01*
X97205000Y-94880000D01*
X97205000Y-95975614D01*
X97105000Y-95975614D01*
X97105000Y-94880000D01*
X96730000Y-94505000D01*
X96481632Y-94505000D01*
X95930319Y-94733361D01*
X95508362Y-95155318D01*
X95307283Y-95640764D01*
X94650000Y-95510022D01*
X94504891Y-95538886D01*
X94514386Y-95492000D01*
X94514386Y-94992000D01*
X94465618Y-94732821D01*
X94514386Y-94492000D01*
X94514386Y-93992000D01*
X94490111Y-93862987D01*
X94621046Y-93732051D01*
X94621049Y-93732049D01*
X94973304Y-93204861D01*
X95020011Y-92970049D01*
X95097001Y-92583000D01*
X95097000Y-92582995D01*
X95097000Y-91567005D01*
X95097001Y-91567000D01*
X95005899Y-91109000D01*
X95150000Y-91109000D01*
X95150000Y-91609000D01*
X95359435Y-92561903D01*
X95917588Y-93362123D01*
X96739485Y-93887834D01*
X97209608Y-94019905D01*
X97600000Y-93683412D01*
X97600000Y-91109000D01*
X97700000Y-91109000D01*
X97700000Y-93683412D01*
X98090392Y-94019905D01*
X98560515Y-93887834D01*
X99382412Y-93362123D01*
X99940565Y-92561903D01*
X100150000Y-91609000D01*
X100150000Y-91109000D01*
X97700000Y-91109000D01*
X97600000Y-91109000D01*
X95150000Y-91109000D01*
X95005899Y-91109000D01*
X94973304Y-90945140D01*
X94973304Y-90945139D01*
X94681886Y-90509000D01*
X95150000Y-90509000D01*
X95150000Y-91009000D01*
X97600000Y-91009000D01*
X97600000Y-88434588D01*
X97700000Y-88434588D01*
X97700000Y-91009000D01*
X100150000Y-91009000D01*
X100150000Y-90509000D01*
X99940565Y-89556097D01*
X99382412Y-88755877D01*
X98560515Y-88230166D01*
X98090392Y-88098095D01*
X97700000Y-88434588D01*
X97600000Y-88434588D01*
X97209608Y-88098095D01*
X96739485Y-88230166D01*
X95917588Y-88755877D01*
X95359435Y-89556097D01*
X95150000Y-90509000D01*
X94681886Y-90509000D01*
X94621049Y-90417951D01*
X94621046Y-90417949D01*
X93732049Y-89528951D01*
X93598607Y-89439788D01*
X93620687Y-89386613D01*
X93621024Y-89001000D01*
X94360995Y-89001000D01*
X94361000Y-89001001D01*
X94879687Y-88897827D01*
X94982861Y-88877304D01*
X95510049Y-88525049D01*
X95799046Y-88236051D01*
X95799049Y-88236049D01*
X96110359Y-87770140D01*
X96151305Y-87708860D01*
X96275001Y-87087000D01*
X96275000Y-87086995D01*
X96275000Y-85935223D01*
X96276346Y-85934324D01*
X96774923Y-85188150D01*
X96950000Y-84307978D01*
X96950000Y-83810022D01*
X96774923Y-82929850D01*
X96276346Y-82183676D01*
X95530172Y-81685099D01*
X94650000Y-81510022D01*
X93769828Y-81685099D01*
X93023654Y-82183676D01*
X92525077Y-82929850D01*
X92350000Y-83810022D01*
X92350000Y-84307978D01*
X92525077Y-85188150D01*
X92901161Y-85751000D01*
X91359796Y-85751000D01*
X91755789Y-85185366D01*
X91950000Y-84309000D01*
X91950000Y-84109000D01*
X89700000Y-84109000D01*
X89700000Y-84129000D01*
X89600000Y-84129000D01*
X89600000Y-84109000D01*
X87350000Y-84109000D01*
X87350000Y-84309000D01*
X87544211Y-85185366D01*
X87940204Y-85751000D01*
X76200000Y-85751000D01*
X75578139Y-85874696D01*
X75050951Y-86226951D01*
X75050949Y-86226954D01*
X74010716Y-87267186D01*
X73405084Y-87517428D01*
X72605495Y-87185409D01*
X72204529Y-87185059D01*
X71886949Y-86866924D01*
X71462970Y-86690872D01*
X70745049Y-85972951D01*
X70623897Y-85892000D01*
X70217861Y-85620696D01*
X70114687Y-85600173D01*
X69596000Y-85496999D01*
X69595995Y-85497000D01*
X61537618Y-85497000D01*
X61755789Y-85185366D01*
X61950000Y-84309000D01*
X61950000Y-84109000D01*
X59700000Y-84109000D01*
X59700000Y-84129000D01*
X59600000Y-84129000D01*
X59600000Y-84109000D01*
X57350000Y-84109000D01*
X57350000Y-84309000D01*
X57544211Y-85185366D01*
X57762382Y-85497000D01*
X56568556Y-85497000D01*
X56774923Y-85188150D01*
X56950000Y-84307978D01*
X56950000Y-83810022D01*
X56949797Y-83809000D01*
X57350000Y-83809000D01*
X57350000Y-84009000D01*
X59600000Y-84009000D01*
X59600000Y-81934649D01*
X59700000Y-81934649D01*
X59700000Y-84009000D01*
X61950000Y-84009000D01*
X61950000Y-83809000D01*
X87350000Y-83809000D01*
X87350000Y-84009000D01*
X89600000Y-84009000D01*
X89600000Y-81934649D01*
X89700000Y-81934649D01*
X89700000Y-84009000D01*
X91950000Y-84009000D01*
X91950000Y-83809000D01*
X91755789Y-82932634D01*
X91240990Y-82197299D01*
X90483978Y-81714943D01*
X90059099Y-81595676D01*
X89700000Y-81934649D01*
X89600000Y-81934649D01*
X89240901Y-81595676D01*
X88816022Y-81714943D01*
X88059010Y-82197299D01*
X87544211Y-82932634D01*
X87350000Y-83809000D01*
X61950000Y-83809000D01*
X61755789Y-82932634D01*
X61240990Y-82197299D01*
X60483978Y-81714943D01*
X60059099Y-81595676D01*
X59700000Y-81934649D01*
X59600000Y-81934649D01*
X59240901Y-81595676D01*
X58816022Y-81714943D01*
X58059010Y-82197299D01*
X57544211Y-82932634D01*
X57350000Y-83809000D01*
X56949797Y-83809000D01*
X56774923Y-82929850D01*
X56276346Y-82183676D01*
X55530172Y-81685099D01*
X54650000Y-81510022D01*
X53769828Y-81685099D01*
X53023654Y-82183676D01*
X52525077Y-82929850D01*
X52350000Y-83810022D01*
X52350000Y-84307978D01*
X52525077Y-85188150D01*
X53023654Y-85934324D01*
X53034914Y-85941848D01*
X53098001Y-86259000D01*
X53148696Y-86513861D01*
X53383416Y-86865145D01*
X53500951Y-87041049D01*
X54730949Y-88271046D01*
X54730951Y-88271049D01*
X54931633Y-88405140D01*
X55258140Y-88623305D01*
X55880000Y-88747001D01*
X55880005Y-88747000D01*
X55893902Y-88747000D01*
X55496951Y-89143951D01*
X55144696Y-89671139D01*
X55144696Y-89671140D01*
X55020999Y-90293000D01*
X55021000Y-90293005D01*
X55021000Y-90885378D01*
X54607714Y-91056145D01*
X54150000Y-91513061D01*
X54150000Y-91109000D01*
X51700000Y-91109000D01*
X51700000Y-93683412D01*
X52090392Y-94019905D01*
X52560515Y-93887834D01*
X53382412Y-93362123D01*
X53825874Y-92726335D01*
X53825688Y-92939471D01*
X54099145Y-93601286D01*
X54456614Y-93959380D01*
X54456614Y-94365000D01*
X54505382Y-94624179D01*
X54456614Y-94865000D01*
X54456614Y-95365000D01*
X54489894Y-95541869D01*
X53992158Y-95640875D01*
X53843638Y-95282318D01*
X53421681Y-94860361D01*
X52870368Y-94632000D01*
X52622000Y-94632000D01*
X52247000Y-95007000D01*
X52247000Y-96102614D01*
X52147000Y-96102614D01*
X52147000Y-95007000D01*
X51772000Y-94632000D01*
X51600000Y-94632000D01*
X51600000Y-88434588D01*
X51700000Y-88434588D01*
X51700000Y-91009000D01*
X54150000Y-91009000D01*
X54150000Y-90509000D01*
X53940565Y-89556097D01*
X53382412Y-88755877D01*
X52560515Y-88230166D01*
X52090392Y-88098095D01*
X51700000Y-88434588D01*
X51600000Y-88434588D01*
X51600000Y-77842155D01*
X52298418Y-78541793D01*
X53400645Y-78999478D01*
X54594119Y-79000519D01*
X55697143Y-78544759D01*
X56541793Y-77701582D01*
X56999478Y-76599355D01*
X56999482Y-76594119D01*
X110999481Y-76594119D01*
X111455241Y-77697143D01*
X112298418Y-78541793D01*
X113400645Y-78999478D01*
X114594119Y-79000519D01*
X115697143Y-78544759D01*
X116541793Y-77701582D01*
X116999478Y-76599355D01*
X117000519Y-75405881D01*
X116544759Y-74302857D01*
X115701582Y-73458207D01*
X114599355Y-73000522D01*
X113405881Y-72999481D01*
X112302857Y-73455241D01*
X111458207Y-74298418D01*
X111000522Y-75400645D01*
X110999481Y-76594119D01*
X56999482Y-76594119D01*
X57000519Y-75405881D01*
X56544759Y-74302857D01*
X55701582Y-73458207D01*
X54599355Y-73000522D01*
X53405881Y-72999481D01*
X52302857Y-73455241D01*
X51600000Y-74156872D01*
X51600000Y-72009000D01*
X59456014Y-72009000D01*
X59456014Y-74041000D01*
X59560607Y-74596867D01*
X59889124Y-75107396D01*
X60390383Y-75449892D01*
X60985400Y-75570386D01*
X62712600Y-75570386D01*
X63268467Y-75465793D01*
X63420763Y-75367793D01*
X63484489Y-75410373D01*
X64389000Y-75590291D01*
X65293511Y-75410373D01*
X65659000Y-75166161D01*
X66024489Y-75410373D01*
X66929000Y-75590291D01*
X67833511Y-75410373D01*
X68236209Y-75141299D01*
X68610684Y-75380216D01*
X69049950Y-75503556D01*
X69419000Y-75165371D01*
X69419000Y-73075000D01*
X69519000Y-73075000D01*
X69519000Y-75165371D01*
X69888050Y-75503556D01*
X70327316Y-75380216D01*
X71104962Y-74884073D01*
X71633547Y-74128105D01*
X71832600Y-73227400D01*
X71832600Y-73075000D01*
X69519000Y-73075000D01*
X69419000Y-73075000D01*
X69399000Y-73075000D01*
X69399000Y-72975000D01*
X69419000Y-72975000D01*
X69419000Y-70884629D01*
X69519000Y-70884629D01*
X69519000Y-72975000D01*
X71832600Y-72975000D01*
X71832600Y-72822600D01*
X71633547Y-71921895D01*
X71104962Y-71165927D01*
X70327316Y-70669784D01*
X69888050Y-70546444D01*
X69519000Y-70884629D01*
X69419000Y-70884629D01*
X69049950Y-70546444D01*
X68629000Y-70664641D01*
X68629000Y-69596005D01*
X68629001Y-69596000D01*
X68499595Y-68945439D01*
X68499595Y-68945438D01*
X68131082Y-68393918D01*
X68131079Y-68393916D01*
X66797582Y-67060418D01*
X66246062Y-66691905D01*
X65595500Y-66562499D01*
X65595495Y-66562500D01*
X63210686Y-66562500D01*
X62970613Y-66462813D01*
X62254529Y-66462188D01*
X61592714Y-66735645D01*
X61085924Y-67241551D01*
X60811313Y-67902887D01*
X60810688Y-68618971D01*
X61084145Y-69280786D01*
X61590051Y-69787576D01*
X62251387Y-70062187D01*
X62967471Y-70062812D01*
X63210244Y-69962500D01*
X64891336Y-69962500D01*
X65229000Y-70300163D01*
X65229000Y-70626795D01*
X64389000Y-70459709D01*
X63484489Y-70639627D01*
X63424307Y-70679839D01*
X63307617Y-70600108D01*
X62712600Y-70479614D01*
X60985400Y-70479614D01*
X60429533Y-70584207D01*
X59919004Y-70912724D01*
X59576508Y-71413983D01*
X59456014Y-72009000D01*
X51600000Y-72009000D01*
X51600000Y-58799607D01*
X57229938Y-58799607D01*
X57463599Y-59393027D01*
X57237894Y-59936586D01*
X57237108Y-60836466D01*
X57580752Y-61668146D01*
X58216507Y-62305012D01*
X58955896Y-62612033D01*
X58757471Y-62810112D01*
X58452348Y-63544930D01*
X58451654Y-64340579D01*
X58755494Y-65075929D01*
X59317612Y-65639029D01*
X60052430Y-65944152D01*
X60848079Y-65944846D01*
X61574973Y-65644500D01*
X68262495Y-65644500D01*
X68262500Y-65644501D01*
X68913062Y-65515095D01*
X69464582Y-65146582D01*
X70575163Y-64036000D01*
X72297000Y-64036000D01*
X72297000Y-64409369D01*
X72525362Y-64960682D01*
X72947319Y-65382639D01*
X73498632Y-65611000D01*
X73997000Y-65611000D01*
X74372000Y-65236000D01*
X74372000Y-63661000D01*
X74472000Y-63661000D01*
X74472000Y-65236000D01*
X74847000Y-65611000D01*
X75345368Y-65611000D01*
X75896681Y-65382639D01*
X76318638Y-64960682D01*
X76547000Y-64409369D01*
X76547000Y-64036000D01*
X76172000Y-63661000D01*
X74472000Y-63661000D01*
X74372000Y-63661000D01*
X72672000Y-63661000D01*
X72297000Y-64036000D01*
X70575163Y-64036000D01*
X71300163Y-63311000D01*
X72422000Y-63311000D01*
X72672000Y-63561000D01*
X73404980Y-63561000D01*
X73797000Y-63640386D01*
X75047000Y-63640386D01*
X75468903Y-63561000D01*
X76172000Y-63561000D01*
X76464451Y-63268549D01*
X76662449Y-63466546D01*
X76662451Y-63466549D01*
X77189639Y-63818804D01*
X77279614Y-63836701D01*
X77279614Y-63942500D01*
X77303998Y-64072089D01*
X77279614Y-64192500D01*
X77279614Y-64442500D01*
X77303998Y-64572089D01*
X77279614Y-64692500D01*
X77279614Y-64942500D01*
X77303998Y-65072089D01*
X77279614Y-65192500D01*
X77279614Y-65442500D01*
X77384207Y-65998367D01*
X77712724Y-66508896D01*
X78213983Y-66851392D01*
X78446599Y-66898498D01*
X78484207Y-67098367D01*
X78812724Y-67608896D01*
X79313983Y-67951392D01*
X79909000Y-68071886D01*
X80159000Y-68071886D01*
X80288589Y-68047502D01*
X80409000Y-68071886D01*
X80659000Y-68071886D01*
X80788589Y-68047502D01*
X80909000Y-68071886D01*
X81159000Y-68071886D01*
X81288589Y-68047502D01*
X81409000Y-68071886D01*
X81659000Y-68071886D01*
X81788589Y-68047502D01*
X81909000Y-68071886D01*
X82159000Y-68071886D01*
X82288589Y-68047502D01*
X82409000Y-68071886D01*
X82659000Y-68071886D01*
X82666411Y-68070492D01*
X81400951Y-69335951D01*
X81048696Y-69863139D01*
X81048696Y-69863140D01*
X80924999Y-70485000D01*
X80925000Y-70485005D01*
X80925000Y-70553523D01*
X80913865Y-70551268D01*
X78853307Y-68490709D01*
X78679355Y-68069714D01*
X78173449Y-67562924D01*
X77512113Y-67288313D01*
X76796029Y-67287688D01*
X76482810Y-67417108D01*
X76270500Y-67374114D01*
X75470500Y-67374114D01*
X75145541Y-67435259D01*
X75068869Y-67403500D01*
X74795500Y-67403500D01*
X74420500Y-67778500D01*
X74420500Y-67796673D01*
X74404104Y-67807224D01*
X74320500Y-67929582D01*
X74320500Y-67778500D01*
X73945500Y-67403500D01*
X73672131Y-67403500D01*
X73120818Y-67631862D01*
X72698861Y-68053819D01*
X72470500Y-68605132D01*
X72470500Y-68853500D01*
X72845500Y-69228500D01*
X73941114Y-69228500D01*
X73941114Y-69328500D01*
X72845500Y-69328500D01*
X72470500Y-69703500D01*
X72470500Y-69951868D01*
X72698861Y-70503181D01*
X73120818Y-70925138D01*
X73672131Y-71153500D01*
X73945500Y-71153500D01*
X74320500Y-70778500D01*
X74320500Y-70636407D01*
X74374224Y-70719896D01*
X74420500Y-70751515D01*
X74420500Y-70778500D01*
X74795500Y-71153500D01*
X75068869Y-71153500D01*
X75153099Y-71118611D01*
X75470500Y-71182886D01*
X76270500Y-71182886D01*
X76826367Y-71078293D01*
X76837519Y-71071117D01*
X77654381Y-71887978D01*
X77617014Y-72072500D01*
X77617014Y-74104500D01*
X77721607Y-74660367D01*
X78050124Y-75170896D01*
X78551383Y-75513392D01*
X79146400Y-75633886D01*
X80873600Y-75633886D01*
X81429467Y-75529293D01*
X81581763Y-75431293D01*
X81645489Y-75473873D01*
X82550000Y-75653791D01*
X83454511Y-75473873D01*
X83820000Y-75229661D01*
X84185489Y-75473873D01*
X85090000Y-75653791D01*
X85994511Y-75473873D01*
X86397209Y-75204799D01*
X86771684Y-75443716D01*
X87210950Y-75567056D01*
X87580000Y-75228871D01*
X87580000Y-73138500D01*
X87680000Y-73138500D01*
X87680000Y-75228871D01*
X88049050Y-75567056D01*
X88488316Y-75443716D01*
X89265962Y-74947573D01*
X89794547Y-74191605D01*
X89926417Y-73594896D01*
X98234287Y-73594896D01*
X98592305Y-74508980D01*
X99272875Y-75216476D01*
X100172387Y-75609674D01*
X100268104Y-75628711D01*
X100661000Y-75292416D01*
X100661000Y-73202000D01*
X98570495Y-73202000D01*
X98234287Y-73594896D01*
X89926417Y-73594896D01*
X89993600Y-73290900D01*
X89993600Y-73138500D01*
X87680000Y-73138500D01*
X87580000Y-73138500D01*
X87560000Y-73138500D01*
X87560000Y-73038500D01*
X87580000Y-73038500D01*
X87580000Y-70948129D01*
X87680000Y-70948129D01*
X87680000Y-73038500D01*
X89993600Y-73038500D01*
X89993600Y-72886100D01*
X89954485Y-72709104D01*
X98234287Y-72709104D01*
X98570495Y-73102000D01*
X100661000Y-73102000D01*
X100661000Y-71011584D01*
X100268104Y-70675289D01*
X100172387Y-70694326D01*
X99272875Y-71087524D01*
X98592305Y-71795020D01*
X98234287Y-72709104D01*
X89954485Y-72709104D01*
X89794547Y-71985395D01*
X89265962Y-71229427D01*
X88488316Y-70733284D01*
X88049050Y-70609944D01*
X87680000Y-70948129D01*
X87580000Y-70948129D01*
X87241839Y-70638250D01*
X87480304Y-70281361D01*
X87523776Y-70062812D01*
X87604001Y-69659500D01*
X87604000Y-69659495D01*
X87604000Y-63754005D01*
X87604001Y-63754000D01*
X87492935Y-63195639D01*
X87480304Y-63132139D01*
X87128049Y-62604951D01*
X87128046Y-62604949D01*
X86691549Y-62168451D01*
X86605567Y-62111000D01*
X86164361Y-61816196D01*
X86016603Y-61786805D01*
X85700208Y-61723869D01*
X85683793Y-61636633D01*
X85355276Y-61126104D01*
X84854017Y-60783608D01*
X84621401Y-60736502D01*
X84583793Y-60536633D01*
X84255276Y-60026104D01*
X83754017Y-59683608D01*
X83159000Y-59563114D01*
X83159000Y-58483505D01*
X83159001Y-58483500D01*
X83049836Y-57934696D01*
X83035304Y-57861639D01*
X82683049Y-57334451D01*
X82683046Y-57334449D01*
X82238549Y-56889951D01*
X82191479Y-56858500D01*
X81711361Y-56537696D01*
X81582908Y-56512145D01*
X81089500Y-56413999D01*
X81089495Y-56414000D01*
X70122306Y-56414000D01*
X69701613Y-56239313D01*
X69607554Y-56239231D01*
X69630803Y-55185609D01*
X69220129Y-54128794D01*
X69148899Y-54022190D01*
X68593564Y-53935627D01*
X66839691Y-55689500D01*
X66853833Y-55703642D01*
X66783122Y-55774353D01*
X66768980Y-55760211D01*
X65015107Y-57514084D01*
X65101670Y-58069419D01*
X66139342Y-58526311D01*
X67272871Y-58551323D01*
X67559985Y-58439752D01*
X67815145Y-59057286D01*
X68003137Y-59245606D01*
X67562924Y-59685051D01*
X67288313Y-60346387D01*
X67287688Y-61062471D01*
X67561145Y-61724286D01*
X67819622Y-61983214D01*
X67558336Y-62244500D01*
X65987422Y-62244500D01*
X66169286Y-62169355D01*
X66676076Y-61663449D01*
X66950687Y-61002113D01*
X66951312Y-60286029D01*
X66677855Y-59624214D01*
X66171949Y-59117424D01*
X65510613Y-58842813D01*
X65294787Y-58842625D01*
X64897000Y-58763499D01*
X64896995Y-58763500D01*
X64301174Y-58763500D01*
X64301892Y-57941554D01*
X63958248Y-57109874D01*
X63322493Y-56473008D01*
X62649101Y-56193391D01*
X63907157Y-56193391D01*
X64317831Y-57250206D01*
X64389061Y-57356810D01*
X64944396Y-57443373D01*
X66698269Y-55689500D01*
X64944396Y-53935627D01*
X64389061Y-54022190D01*
X63932169Y-55059862D01*
X63907157Y-56193391D01*
X62649101Y-56193391D01*
X62491414Y-56127914D01*
X61591534Y-56127128D01*
X60759854Y-56470772D01*
X60759683Y-56470943D01*
X59989153Y-56135784D01*
X59089413Y-56119958D01*
X58252105Y-56449651D01*
X58184652Y-56494721D01*
X58169667Y-56988976D01*
X59307022Y-58126331D01*
X59165477Y-58126208D01*
X58098956Y-57059687D01*
X57604701Y-57074672D01*
X57245764Y-57899867D01*
X57229938Y-58799607D01*
X51600000Y-58799607D01*
X51600000Y-57514084D01*
X53016147Y-57514084D01*
X53102710Y-58069419D01*
X54140382Y-58526311D01*
X55273911Y-58551323D01*
X56330726Y-58140649D01*
X56437330Y-58069419D01*
X56523893Y-57514084D01*
X54770020Y-55760211D01*
X53016147Y-57514084D01*
X51600000Y-57514084D01*
X51600000Y-56193391D01*
X51908197Y-56193391D01*
X52318871Y-57250206D01*
X52390101Y-57356810D01*
X52945436Y-57443373D01*
X54699309Y-55689500D01*
X54840731Y-55689500D01*
X56594604Y-57443373D01*
X57149939Y-57356810D01*
X57606831Y-56319138D01*
X57631843Y-55185609D01*
X57221169Y-54128794D01*
X57149939Y-54022190D01*
X56594604Y-53935627D01*
X54840731Y-55689500D01*
X54699309Y-55689500D01*
X52945436Y-53935627D01*
X52390101Y-54022190D01*
X51933209Y-55059862D01*
X51908197Y-56193391D01*
X51600000Y-56193391D01*
X51600000Y-53864916D01*
X53016147Y-53864916D01*
X54770020Y-55618789D01*
X56523893Y-53864916D01*
X65015107Y-53864916D01*
X66768980Y-55618789D01*
X68522853Y-53864916D01*
X68436290Y-53309581D01*
X67398618Y-52852689D01*
X66265089Y-52827677D01*
X65208274Y-53238351D01*
X65101670Y-53309581D01*
X65015107Y-53864916D01*
X56523893Y-53864916D01*
X56437330Y-53309581D01*
X55399658Y-52852689D01*
X54266129Y-52827677D01*
X53209314Y-53238351D01*
X53102710Y-53309581D01*
X53016147Y-53864916D01*
X51600000Y-53864916D01*
X51600000Y-51600000D01*
X102920283Y-51600000D01*
X102481138Y-51741684D01*
X102481138Y-51741684D01*
G37*
X102481138Y-51741684D02*
X102059407Y-52687593D01*
X101426721Y-52424879D01*
X99875086Y-52423525D01*
X98441044Y-53016059D01*
X97342915Y-54112273D01*
X96747879Y-55545279D01*
X96746525Y-57096914D01*
X97339059Y-58530956D01*
X98435273Y-59629085D01*
X99868279Y-60224121D01*
X101419914Y-60225475D01*
X101797814Y-60069330D01*
X101797814Y-62534800D01*
X101902407Y-63090667D01*
X102230924Y-63601196D01*
X102732183Y-63943692D01*
X103327200Y-64064186D01*
X103627500Y-64064186D01*
X103627500Y-69805652D01*
X102826538Y-70606614D01*
X102235000Y-70606614D01*
X101679133Y-70711207D01*
X101521007Y-70812959D01*
X101249613Y-70694326D01*
X101153896Y-70675289D01*
X100761000Y-71011584D01*
X100761000Y-71862496D01*
X100705614Y-72136000D01*
X100705614Y-74168000D01*
X100761000Y-74462353D01*
X100761000Y-75292416D01*
X101153896Y-75628711D01*
X101249613Y-75609674D01*
X101516939Y-75492819D01*
X101639983Y-75576892D01*
X102235000Y-75697386D01*
X104267000Y-75697386D01*
X104822867Y-75592793D01*
X105333396Y-75264276D01*
X105675892Y-74763017D01*
X105796386Y-74168000D01*
X105796386Y-73576462D01*
X107212424Y-72160424D01*
X107667647Y-71479135D01*
X107827500Y-70675500D01*
X107827500Y-64064186D01*
X108127800Y-64064186D01*
X108683667Y-63959593D01*
X109194196Y-63631076D01*
X109536692Y-63129817D01*
X109657186Y-62534800D01*
X109657186Y-57734200D01*
X109552593Y-57178333D01*
X109224076Y-56667804D01*
X108813287Y-56387123D01*
X108973862Y-56335316D01*
X109605701Y-54918153D01*
X109647119Y-53367070D01*
X109091811Y-51918206D01*
X108973862Y-51741684D01*
X108534717Y-51600000D01*
X118400000Y-51600000D01*
X118400000Y-98400000D01*
X99040148Y-98400000D01*
X99059386Y-98305000D01*
X99059386Y-97505000D01*
X98998241Y-97180041D01*
X99030000Y-97103369D01*
X99030000Y-96830000D01*
X98655000Y-96455000D01*
X98636827Y-96455000D01*
X98626276Y-96438604D01*
X98503918Y-96355000D01*
X98655000Y-96355000D01*
X99030000Y-95980000D01*
X99030000Y-95706631D01*
X98801638Y-95155318D01*
X98379681Y-94733361D01*
X97828368Y-94505000D01*
X97580000Y-94505000D01*
X97205000Y-94880000D01*
X97205000Y-95975614D01*
X97105000Y-95975614D01*
X97105000Y-94880000D01*
X96730000Y-94505000D01*
X96481632Y-94505000D01*
X95930319Y-94733361D01*
X95508362Y-95155318D01*
X95307283Y-95640764D01*
X94650000Y-95510022D01*
X94504891Y-95538886D01*
X94514386Y-95492000D01*
X94514386Y-94992000D01*
X94465618Y-94732821D01*
X94514386Y-94492000D01*
X94514386Y-93992000D01*
X94490111Y-93862987D01*
X94621046Y-93732051D01*
X94621049Y-93732049D01*
X94973304Y-93204861D01*
X95020011Y-92970049D01*
X95097001Y-92583000D01*
X95097000Y-92582995D01*
X95097000Y-91567005D01*
X95097001Y-91567000D01*
X95005899Y-91109000D01*
X95150000Y-91109000D01*
X95150000Y-91609000D01*
X95359435Y-92561903D01*
X95917588Y-93362123D01*
X96739485Y-93887834D01*
X97209608Y-94019905D01*
X97600000Y-93683412D01*
X97600000Y-91109000D01*
X97700000Y-91109000D01*
X97700000Y-93683412D01*
X98090392Y-94019905D01*
X98560515Y-93887834D01*
X99382412Y-93362123D01*
X99940565Y-92561903D01*
X100150000Y-91609000D01*
X100150000Y-91109000D01*
X97700000Y-91109000D01*
X97600000Y-91109000D01*
X95150000Y-91109000D01*
X95005899Y-91109000D01*
X94973304Y-90945140D01*
X94973304Y-90945139D01*
X94681886Y-90509000D01*
X95150000Y-90509000D01*
X95150000Y-91009000D01*
X97600000Y-91009000D01*
X97600000Y-88434588D01*
X97700000Y-88434588D01*
X97700000Y-91009000D01*
X100150000Y-91009000D01*
X100150000Y-90509000D01*
X99940565Y-89556097D01*
X99382412Y-88755877D01*
X98560515Y-88230166D01*
X98090392Y-88098095D01*
X97700000Y-88434588D01*
X97600000Y-88434588D01*
X97209608Y-88098095D01*
X96739485Y-88230166D01*
X95917588Y-88755877D01*
X95359435Y-89556097D01*
X95150000Y-90509000D01*
X94681886Y-90509000D01*
X94621049Y-90417951D01*
X94621046Y-90417949D01*
X93732049Y-89528951D01*
X93598607Y-89439788D01*
X93620687Y-89386613D01*
X93621024Y-89001000D01*
X94360995Y-89001000D01*
X94361000Y-89001001D01*
X94879687Y-88897827D01*
X94982861Y-88877304D01*
X95510049Y-88525049D01*
X95799046Y-88236051D01*
X95799049Y-88236049D01*
X96110359Y-87770140D01*
X96151305Y-87708860D01*
X96275001Y-87087000D01*
X96275000Y-87086995D01*
X96275000Y-85935223D01*
X96276346Y-85934324D01*
X96774923Y-85188150D01*
X96950000Y-84307978D01*
X96950000Y-83810022D01*
X96774923Y-82929850D01*
X96276346Y-82183676D01*
X95530172Y-81685099D01*
X94650000Y-81510022D01*
X93769828Y-81685099D01*
X93023654Y-82183676D01*
X92525077Y-82929850D01*
X92350000Y-83810022D01*
X92350000Y-84307978D01*
X92525077Y-85188150D01*
X92901161Y-85751000D01*
X91359796Y-85751000D01*
X91755789Y-85185366D01*
X91950000Y-84309000D01*
X91950000Y-84109000D01*
X89700000Y-84109000D01*
X89700000Y-84129000D01*
X89600000Y-84129000D01*
X89600000Y-84109000D01*
X87350000Y-84109000D01*
X87350000Y-84309000D01*
X87544211Y-85185366D01*
X87940204Y-85751000D01*
X76200000Y-85751000D01*
X75578139Y-85874696D01*
X75050951Y-86226951D01*
X75050949Y-86226954D01*
X74010716Y-87267186D01*
X73405084Y-87517428D01*
X72605495Y-87185409D01*
X72204529Y-87185059D01*
X71886949Y-86866924D01*
X71462970Y-86690872D01*
X70745049Y-85972951D01*
X70623897Y-85892000D01*
X70217861Y-85620696D01*
X70114687Y-85600173D01*
X69596000Y-85496999D01*
X69595995Y-85497000D01*
X61537618Y-85497000D01*
X61755789Y-85185366D01*
X61950000Y-84309000D01*
X61950000Y-84109000D01*
X59700000Y-84109000D01*
X59700000Y-84129000D01*
X59600000Y-84129000D01*
X59600000Y-84109000D01*
X57350000Y-84109000D01*
X57350000Y-84309000D01*
X57544211Y-85185366D01*
X57762382Y-85497000D01*
X56568556Y-85497000D01*
X56774923Y-85188150D01*
X56950000Y-84307978D01*
X56950000Y-83810022D01*
X56949797Y-83809000D01*
X57350000Y-83809000D01*
X57350000Y-84009000D01*
X59600000Y-84009000D01*
X59600000Y-81934649D01*
X59700000Y-81934649D01*
X59700000Y-84009000D01*
X61950000Y-84009000D01*
X61950000Y-83809000D01*
X87350000Y-83809000D01*
X87350000Y-84009000D01*
X89600000Y-84009000D01*
X89600000Y-81934649D01*
X89700000Y-81934649D01*
X89700000Y-84009000D01*
X91950000Y-84009000D01*
X91950000Y-83809000D01*
X91755789Y-82932634D01*
X91240990Y-82197299D01*
X90483978Y-81714943D01*
X90059099Y-81595676D01*
X89700000Y-81934649D01*
X89600000Y-81934649D01*
X89240901Y-81595676D01*
X88816022Y-81714943D01*
X88059010Y-82197299D01*
X87544211Y-82932634D01*
X87350000Y-83809000D01*
X61950000Y-83809000D01*
X61755789Y-82932634D01*
X61240990Y-82197299D01*
X60483978Y-81714943D01*
X60059099Y-81595676D01*
X59700000Y-81934649D01*
X59600000Y-81934649D01*
X59240901Y-81595676D01*
X58816022Y-81714943D01*
X58059010Y-82197299D01*
X57544211Y-82932634D01*
X57350000Y-83809000D01*
X56949797Y-83809000D01*
X56774923Y-82929850D01*
X56276346Y-82183676D01*
X55530172Y-81685099D01*
X54650000Y-81510022D01*
X53769828Y-81685099D01*
X53023654Y-82183676D01*
X52525077Y-82929850D01*
X52350000Y-83810022D01*
X52350000Y-84307978D01*
X52525077Y-85188150D01*
X53023654Y-85934324D01*
X53034914Y-85941848D01*
X53098001Y-86259000D01*
X53148696Y-86513861D01*
X53383416Y-86865145D01*
X53500951Y-87041049D01*
X54730949Y-88271046D01*
X54730951Y-88271049D01*
X54931633Y-88405140D01*
X55258140Y-88623305D01*
X55880000Y-88747001D01*
X55880005Y-88747000D01*
X55893902Y-88747000D01*
X55496951Y-89143951D01*
X55144696Y-89671139D01*
X55144696Y-89671140D01*
X55020999Y-90293000D01*
X55021000Y-90293005D01*
X55021000Y-90885378D01*
X54607714Y-91056145D01*
X54150000Y-91513061D01*
X54150000Y-91109000D01*
X51700000Y-91109000D01*
X51700000Y-93683412D01*
X52090392Y-94019905D01*
X52560515Y-93887834D01*
X53382412Y-93362123D01*
X53825874Y-92726335D01*
X53825688Y-92939471D01*
X54099145Y-93601286D01*
X54456614Y-93959380D01*
X54456614Y-94365000D01*
X54505382Y-94624179D01*
X54456614Y-94865000D01*
X54456614Y-95365000D01*
X54489894Y-95541869D01*
X53992158Y-95640875D01*
X53843638Y-95282318D01*
X53421681Y-94860361D01*
X52870368Y-94632000D01*
X52622000Y-94632000D01*
X52247000Y-95007000D01*
X52247000Y-96102614D01*
X52147000Y-96102614D01*
X52147000Y-95007000D01*
X51772000Y-94632000D01*
X51600000Y-94632000D01*
X51600000Y-88434588D01*
X51700000Y-88434588D01*
X51700000Y-91009000D01*
X54150000Y-91009000D01*
X54150000Y-90509000D01*
X53940565Y-89556097D01*
X53382412Y-88755877D01*
X52560515Y-88230166D01*
X52090392Y-88098095D01*
X51700000Y-88434588D01*
X51600000Y-88434588D01*
X51600000Y-77842155D01*
X52298418Y-78541793D01*
X53400645Y-78999478D01*
X54594119Y-79000519D01*
X55697143Y-78544759D01*
X56541793Y-77701582D01*
X56999478Y-76599355D01*
X56999482Y-76594119D01*
X110999481Y-76594119D01*
X111455241Y-77697143D01*
X112298418Y-78541793D01*
X113400645Y-78999478D01*
X114594119Y-79000519D01*
X115697143Y-78544759D01*
X116541793Y-77701582D01*
X116999478Y-76599355D01*
X117000519Y-75405881D01*
X116544759Y-74302857D01*
X115701582Y-73458207D01*
X114599355Y-73000522D01*
X113405881Y-72999481D01*
X112302857Y-73455241D01*
X111458207Y-74298418D01*
X111000522Y-75400645D01*
X110999481Y-76594119D01*
X56999482Y-76594119D01*
X57000519Y-75405881D01*
X56544759Y-74302857D01*
X55701582Y-73458207D01*
X54599355Y-73000522D01*
X53405881Y-72999481D01*
X52302857Y-73455241D01*
X51600000Y-74156872D01*
X51600000Y-72009000D01*
X59456014Y-72009000D01*
X59456014Y-74041000D01*
X59560607Y-74596867D01*
X59889124Y-75107396D01*
X60390383Y-75449892D01*
X60985400Y-75570386D01*
X62712600Y-75570386D01*
X63268467Y-75465793D01*
X63420763Y-75367793D01*
X63484489Y-75410373D01*
X64389000Y-75590291D01*
X65293511Y-75410373D01*
X65659000Y-75166161D01*
X66024489Y-75410373D01*
X66929000Y-75590291D01*
X67833511Y-75410373D01*
X68236209Y-75141299D01*
X68610684Y-75380216D01*
X69049950Y-75503556D01*
X69419000Y-75165371D01*
X69419000Y-73075000D01*
X69519000Y-73075000D01*
X69519000Y-75165371D01*
X69888050Y-75503556D01*
X70327316Y-75380216D01*
X71104962Y-74884073D01*
X71633547Y-74128105D01*
X71832600Y-73227400D01*
X71832600Y-73075000D01*
X69519000Y-73075000D01*
X69419000Y-73075000D01*
X69399000Y-73075000D01*
X69399000Y-72975000D01*
X69419000Y-72975000D01*
X69419000Y-70884629D01*
X69519000Y-70884629D01*
X69519000Y-72975000D01*
X71832600Y-72975000D01*
X71832600Y-72822600D01*
X71633547Y-71921895D01*
X71104962Y-71165927D01*
X70327316Y-70669784D01*
X69888050Y-70546444D01*
X69519000Y-70884629D01*
X69419000Y-70884629D01*
X69049950Y-70546444D01*
X68629000Y-70664641D01*
X68629000Y-69596005D01*
X68629001Y-69596000D01*
X68499595Y-68945439D01*
X68499595Y-68945438D01*
X68131082Y-68393918D01*
X68131079Y-68393916D01*
X66797582Y-67060418D01*
X66246062Y-66691905D01*
X65595500Y-66562499D01*
X65595495Y-66562500D01*
X63210686Y-66562500D01*
X62970613Y-66462813D01*
X62254529Y-66462188D01*
X61592714Y-66735645D01*
X61085924Y-67241551D01*
X60811313Y-67902887D01*
X60810688Y-68618971D01*
X61084145Y-69280786D01*
X61590051Y-69787576D01*
X62251387Y-70062187D01*
X62967471Y-70062812D01*
X63210244Y-69962500D01*
X64891336Y-69962500D01*
X65229000Y-70300163D01*
X65229000Y-70626795D01*
X64389000Y-70459709D01*
X63484489Y-70639627D01*
X63424307Y-70679839D01*
X63307617Y-70600108D01*
X62712600Y-70479614D01*
X60985400Y-70479614D01*
X60429533Y-70584207D01*
X59919004Y-70912724D01*
X59576508Y-71413983D01*
X59456014Y-72009000D01*
X51600000Y-72009000D01*
X51600000Y-58799607D01*
X57229938Y-58799607D01*
X57463599Y-59393027D01*
X57237894Y-59936586D01*
X57237108Y-60836466D01*
X57580752Y-61668146D01*
X58216507Y-62305012D01*
X58955896Y-62612033D01*
X58757471Y-62810112D01*
X58452348Y-63544930D01*
X58451654Y-64340579D01*
X58755494Y-65075929D01*
X59317612Y-65639029D01*
X60052430Y-65944152D01*
X60848079Y-65944846D01*
X61574973Y-65644500D01*
X68262495Y-65644500D01*
X68262500Y-65644501D01*
X68913062Y-65515095D01*
X69464582Y-65146582D01*
X70575163Y-64036000D01*
X72297000Y-64036000D01*
X72297000Y-64409369D01*
X72525362Y-64960682D01*
X72947319Y-65382639D01*
X73498632Y-65611000D01*
X73997000Y-65611000D01*
X74372000Y-65236000D01*
X74372000Y-63661000D01*
X74472000Y-63661000D01*
X74472000Y-65236000D01*
X74847000Y-65611000D01*
X75345368Y-65611000D01*
X75896681Y-65382639D01*
X76318638Y-64960682D01*
X76547000Y-64409369D01*
X76547000Y-64036000D01*
X76172000Y-63661000D01*
X74472000Y-63661000D01*
X74372000Y-63661000D01*
X72672000Y-63661000D01*
X72297000Y-64036000D01*
X70575163Y-64036000D01*
X71300163Y-63311000D01*
X72422000Y-63311000D01*
X72672000Y-63561000D01*
X73404980Y-63561000D01*
X73797000Y-63640386D01*
X75047000Y-63640386D01*
X75468903Y-63561000D01*
X76172000Y-63561000D01*
X76464451Y-63268549D01*
X76662449Y-63466546D01*
X76662451Y-63466549D01*
X77189639Y-63818804D01*
X77279614Y-63836701D01*
X77279614Y-63942500D01*
X77303998Y-64072089D01*
X77279614Y-64192500D01*
X77279614Y-64442500D01*
X77303998Y-64572089D01*
X77279614Y-64692500D01*
X77279614Y-64942500D01*
X77303998Y-65072089D01*
X77279614Y-65192500D01*
X77279614Y-65442500D01*
X77384207Y-65998367D01*
X77712724Y-66508896D01*
X78213983Y-66851392D01*
X78446599Y-66898498D01*
X78484207Y-67098367D01*
X78812724Y-67608896D01*
X79313983Y-67951392D01*
X79909000Y-68071886D01*
X80159000Y-68071886D01*
X80288589Y-68047502D01*
X80409000Y-68071886D01*
X80659000Y-68071886D01*
X80788589Y-68047502D01*
X80909000Y-68071886D01*
X81159000Y-68071886D01*
X81288589Y-68047502D01*
X81409000Y-68071886D01*
X81659000Y-68071886D01*
X81788589Y-68047502D01*
X81909000Y-68071886D01*
X82159000Y-68071886D01*
X82288589Y-68047502D01*
X82409000Y-68071886D01*
X82659000Y-68071886D01*
X82666411Y-68070492D01*
X81400951Y-69335951D01*
X81048696Y-69863139D01*
X81048696Y-69863140D01*
X80924999Y-70485000D01*
X80925000Y-70485005D01*
X80925000Y-70553523D01*
X80913865Y-70551268D01*
X78853307Y-68490709D01*
X78679355Y-68069714D01*
X78173449Y-67562924D01*
X77512113Y-67288313D01*
X76796029Y-67287688D01*
X76482810Y-67417108D01*
X76270500Y-67374114D01*
X75470500Y-67374114D01*
X75145541Y-67435259D01*
X75068869Y-67403500D01*
X74795500Y-67403500D01*
X74420500Y-67778500D01*
X74420500Y-67796673D01*
X74404104Y-67807224D01*
X74320500Y-67929582D01*
X74320500Y-67778500D01*
X73945500Y-67403500D01*
X73672131Y-67403500D01*
X73120818Y-67631862D01*
X72698861Y-68053819D01*
X72470500Y-68605132D01*
X72470500Y-68853500D01*
X72845500Y-69228500D01*
X73941114Y-69228500D01*
X73941114Y-69328500D01*
X72845500Y-69328500D01*
X72470500Y-69703500D01*
X72470500Y-69951868D01*
X72698861Y-70503181D01*
X73120818Y-70925138D01*
X73672131Y-71153500D01*
X73945500Y-71153500D01*
X74320500Y-70778500D01*
X74320500Y-70636407D01*
X74374224Y-70719896D01*
X74420500Y-70751515D01*
X74420500Y-70778500D01*
X74795500Y-71153500D01*
X75068869Y-71153500D01*
X75153099Y-71118611D01*
X75470500Y-71182886D01*
X76270500Y-71182886D01*
X76826367Y-71078293D01*
X76837519Y-71071117D01*
X77654381Y-71887978D01*
X77617014Y-72072500D01*
X77617014Y-74104500D01*
X77721607Y-74660367D01*
X78050124Y-75170896D01*
X78551383Y-75513392D01*
X79146400Y-75633886D01*
X80873600Y-75633886D01*
X81429467Y-75529293D01*
X81581763Y-75431293D01*
X81645489Y-75473873D01*
X82550000Y-75653791D01*
X83454511Y-75473873D01*
X83820000Y-75229661D01*
X84185489Y-75473873D01*
X85090000Y-75653791D01*
X85994511Y-75473873D01*
X86397209Y-75204799D01*
X86771684Y-75443716D01*
X87210950Y-75567056D01*
X87580000Y-75228871D01*
X87580000Y-73138500D01*
X87680000Y-73138500D01*
X87680000Y-75228871D01*
X88049050Y-75567056D01*
X88488316Y-75443716D01*
X89265962Y-74947573D01*
X89794547Y-74191605D01*
X89926417Y-73594896D01*
X98234287Y-73594896D01*
X98592305Y-74508980D01*
X99272875Y-75216476D01*
X100172387Y-75609674D01*
X100268104Y-75628711D01*
X100661000Y-75292416D01*
X100661000Y-73202000D01*
X98570495Y-73202000D01*
X98234287Y-73594896D01*
X89926417Y-73594896D01*
X89993600Y-73290900D01*
X89993600Y-73138500D01*
X87680000Y-73138500D01*
X87580000Y-73138500D01*
X87560000Y-73138500D01*
X87560000Y-73038500D01*
X87580000Y-73038500D01*
X87580000Y-70948129D01*
X87680000Y-70948129D01*
X87680000Y-73038500D01*
X89993600Y-73038500D01*
X89993600Y-72886100D01*
X89954485Y-72709104D01*
X98234287Y-72709104D01*
X98570495Y-73102000D01*
X100661000Y-73102000D01*
X100661000Y-71011584D01*
X100268104Y-70675289D01*
X100172387Y-70694326D01*
X99272875Y-71087524D01*
X98592305Y-71795020D01*
X98234287Y-72709104D01*
X89954485Y-72709104D01*
X89794547Y-71985395D01*
X89265962Y-71229427D01*
X88488316Y-70733284D01*
X88049050Y-70609944D01*
X87680000Y-70948129D01*
X87580000Y-70948129D01*
X87241839Y-70638250D01*
X87480304Y-70281361D01*
X87523776Y-70062812D01*
X87604001Y-69659500D01*
X87604000Y-69659495D01*
X87604000Y-63754005D01*
X87604001Y-63754000D01*
X87492935Y-63195639D01*
X87480304Y-63132139D01*
X87128049Y-62604951D01*
X87128046Y-62604949D01*
X86691549Y-62168451D01*
X86605567Y-62111000D01*
X86164361Y-61816196D01*
X86016603Y-61786805D01*
X85700208Y-61723869D01*
X85683793Y-61636633D01*
X85355276Y-61126104D01*
X84854017Y-60783608D01*
X84621401Y-60736502D01*
X84583793Y-60536633D01*
X84255276Y-60026104D01*
X83754017Y-59683608D01*
X83159000Y-59563114D01*
X83159000Y-58483505D01*
X83159001Y-58483500D01*
X83049836Y-57934696D01*
X83035304Y-57861639D01*
X82683049Y-57334451D01*
X82683046Y-57334449D01*
X82238549Y-56889951D01*
X82191479Y-56858500D01*
X81711361Y-56537696D01*
X81582908Y-56512145D01*
X81089500Y-56413999D01*
X81089495Y-56414000D01*
X70122306Y-56414000D01*
X69701613Y-56239313D01*
X69607554Y-56239231D01*
X69630803Y-55185609D01*
X69220129Y-54128794D01*
X69148899Y-54022190D01*
X68593564Y-53935627D01*
X66839691Y-55689500D01*
X66853833Y-55703642D01*
X66783122Y-55774353D01*
X66768980Y-55760211D01*
X65015107Y-57514084D01*
X65101670Y-58069419D01*
X66139342Y-58526311D01*
X67272871Y-58551323D01*
X67559985Y-58439752D01*
X67815145Y-59057286D01*
X68003137Y-59245606D01*
X67562924Y-59685051D01*
X67288313Y-60346387D01*
X67287688Y-61062471D01*
X67561145Y-61724286D01*
X67819622Y-61983214D01*
X67558336Y-62244500D01*
X65987422Y-62244500D01*
X66169286Y-62169355D01*
X66676076Y-61663449D01*
X66950687Y-61002113D01*
X66951312Y-60286029D01*
X66677855Y-59624214D01*
X66171949Y-59117424D01*
X65510613Y-58842813D01*
X65294787Y-58842625D01*
X64897000Y-58763499D01*
X64896995Y-58763500D01*
X64301174Y-58763500D01*
X64301892Y-57941554D01*
X63958248Y-57109874D01*
X63322493Y-56473008D01*
X62649101Y-56193391D01*
X63907157Y-56193391D01*
X64317831Y-57250206D01*
X64389061Y-57356810D01*
X64944396Y-57443373D01*
X66698269Y-55689500D01*
X64944396Y-53935627D01*
X64389061Y-54022190D01*
X63932169Y-55059862D01*
X63907157Y-56193391D01*
X62649101Y-56193391D01*
X62491414Y-56127914D01*
X61591534Y-56127128D01*
X60759854Y-56470772D01*
X60759683Y-56470943D01*
X59989153Y-56135784D01*
X59089413Y-56119958D01*
X58252105Y-56449651D01*
X58184652Y-56494721D01*
X58169667Y-56988976D01*
X59307022Y-58126331D01*
X59165477Y-58126208D01*
X58098956Y-57059687D01*
X57604701Y-57074672D01*
X57245764Y-57899867D01*
X57229938Y-58799607D01*
X51600000Y-58799607D01*
X51600000Y-57514084D01*
X53016147Y-57514084D01*
X53102710Y-58069419D01*
X54140382Y-58526311D01*
X55273911Y-58551323D01*
X56330726Y-58140649D01*
X56437330Y-58069419D01*
X56523893Y-57514084D01*
X54770020Y-55760211D01*
X53016147Y-57514084D01*
X51600000Y-57514084D01*
X51600000Y-56193391D01*
X51908197Y-56193391D01*
X52318871Y-57250206D01*
X52390101Y-57356810D01*
X52945436Y-57443373D01*
X54699309Y-55689500D01*
X54840731Y-55689500D01*
X56594604Y-57443373D01*
X57149939Y-57356810D01*
X57606831Y-56319138D01*
X57631843Y-55185609D01*
X57221169Y-54128794D01*
X57149939Y-54022190D01*
X56594604Y-53935627D01*
X54840731Y-55689500D01*
X54699309Y-55689500D01*
X52945436Y-53935627D01*
X52390101Y-54022190D01*
X51933209Y-55059862D01*
X51908197Y-56193391D01*
X51600000Y-56193391D01*
X51600000Y-53864916D01*
X53016147Y-53864916D01*
X54770020Y-55618789D01*
X56523893Y-53864916D01*
X65015107Y-53864916D01*
X66768980Y-55618789D01*
X68522853Y-53864916D01*
X68436290Y-53309581D01*
X67398618Y-52852689D01*
X66265089Y-52827677D01*
X65208274Y-53238351D01*
X65101670Y-53309581D01*
X65015107Y-53864916D01*
X56523893Y-53864916D01*
X56437330Y-53309581D01*
X55399658Y-52852689D01*
X54266129Y-52827677D01*
X53209314Y-53238351D01*
X53102710Y-53309581D01*
X53016147Y-53864916D01*
X51600000Y-53864916D01*
X51600000Y-51600000D01*
X102920283Y-51600000D01*
X102481138Y-51741684D01*
G36*
X81584000Y-63767500D02*
X81604000Y-63767500D01*
X81604000Y-63867500D01*
X81584000Y-63867500D01*
X81584000Y-63887500D01*
X81484000Y-63887500D01*
X81484000Y-63867500D01*
X81464000Y-63867500D01*
X81464000Y-63767500D01*
X81484000Y-63767500D01*
X81484000Y-63747500D01*
X81584000Y-63747500D01*
X81584000Y-63767500D01*
X81584000Y-63767500D01*
G37*
X81584000Y-63767500D02*
X81604000Y-63767500D01*
X81604000Y-63867500D01*
X81584000Y-63867500D01*
X81584000Y-63887500D01*
X81484000Y-63887500D01*
X81484000Y-63867500D01*
X81464000Y-63867500D01*
X81464000Y-63767500D01*
X81484000Y-63767500D01*
X81484000Y-63747500D01*
X81584000Y-63747500D01*
X81584000Y-63767500D01*
G36*
X57200000Y-98009000D02*
X57220000Y-98009000D01*
X57220000Y-98109000D01*
X57200000Y-98109000D01*
X57200000Y-98129000D01*
X57100000Y-98129000D01*
X57100000Y-98109000D01*
X57080000Y-98109000D01*
X57080000Y-98009000D01*
X57100000Y-98009000D01*
X57100000Y-97989000D01*
X57200000Y-97989000D01*
X57200000Y-98009000D01*
X57200000Y-98009000D01*
G37*
X57200000Y-98009000D02*
X57220000Y-98009000D01*
X57220000Y-98109000D01*
X57200000Y-98109000D01*
X57200000Y-98129000D01*
X57100000Y-98129000D01*
X57100000Y-98109000D01*
X57080000Y-98109000D01*
X57080000Y-98009000D01*
X57100000Y-98009000D01*
X57100000Y-97989000D01*
X57200000Y-97989000D01*
X57200000Y-98009000D01*
G36*
X92200000Y-98009000D02*
X92220000Y-98009000D01*
X92220000Y-98109000D01*
X92200000Y-98109000D01*
X92200000Y-98129000D01*
X92100000Y-98129000D01*
X92100000Y-98109000D01*
X92080000Y-98109000D01*
X92080000Y-98009000D01*
X92100000Y-98009000D01*
X92100000Y-97989000D01*
X92200000Y-97989000D01*
X92200000Y-98009000D01*
X92200000Y-98009000D01*
G37*
X92200000Y-98009000D02*
X92220000Y-98009000D01*
X92220000Y-98109000D01*
X92200000Y-98109000D01*
X92200000Y-98129000D01*
X92100000Y-98129000D01*
X92100000Y-98109000D01*
X92080000Y-98109000D01*
X92080000Y-98009000D01*
X92100000Y-98009000D01*
X92100000Y-97989000D01*
X92200000Y-97989000D01*
X92200000Y-98009000D01*
G36*
X84150000Y-90509000D02*
X84150000Y-91009000D01*
X86600000Y-91009000D01*
X86600000Y-90989000D01*
X86700000Y-90989000D01*
X86700000Y-91009000D01*
X86720000Y-91009000D01*
X86720000Y-91109000D01*
X86700000Y-91109000D01*
X86700000Y-91129000D01*
X86600000Y-91129000D01*
X86600000Y-91109000D01*
X84150000Y-91109000D01*
X84150000Y-91609000D01*
X84355392Y-92543510D01*
X84289903Y-92609000D01*
X82086802Y-92609000D01*
X82097001Y-92585604D01*
X82114203Y-91650875D01*
X81774355Y-90785719D01*
X82097001Y-90045604D01*
X82104539Y-89636000D01*
X84341873Y-89636000D01*
X84150000Y-90509000D01*
X84150000Y-90509000D01*
G37*
X84150000Y-90509000D02*
X84150000Y-91009000D01*
X86600000Y-91009000D01*
X86600000Y-90989000D01*
X86700000Y-90989000D01*
X86700000Y-91009000D01*
X86720000Y-91009000D01*
X86720000Y-91109000D01*
X86700000Y-91109000D01*
X86700000Y-91129000D01*
X86600000Y-91129000D01*
X86600000Y-91109000D01*
X84150000Y-91109000D01*
X84150000Y-91609000D01*
X84355392Y-92543510D01*
X84289903Y-92609000D01*
X82086802Y-92609000D01*
X82097001Y-92585604D01*
X82114203Y-91650875D01*
X81774355Y-90785719D01*
X82097001Y-90045604D01*
X82104539Y-89636000D01*
X84341873Y-89636000D01*
X84150000Y-90509000D01*
G36*
X79840853Y-92060858D02*
X79826711Y-92075000D01*
X79840853Y-92089142D01*
X79770142Y-92159853D01*
X79756000Y-92145711D01*
X79741858Y-92159853D01*
X79671147Y-92089142D01*
X79685289Y-92075000D01*
X79671147Y-92060858D01*
X79741858Y-91990147D01*
X79756000Y-92004289D01*
X79770142Y-91990147D01*
X79840853Y-92060858D01*
X79840853Y-92060858D01*
G37*
X79840853Y-92060858D02*
X79826711Y-92075000D01*
X79840853Y-92089142D01*
X79770142Y-92159853D01*
X79756000Y-92145711D01*
X79741858Y-92159853D01*
X79671147Y-92089142D01*
X79685289Y-92075000D01*
X79671147Y-92060858D01*
X79741858Y-91990147D01*
X79756000Y-92004289D01*
X79770142Y-91990147D01*
X79840853Y-92060858D01*
G36*
X60359435Y-89556097D02*
X60150000Y-90509000D01*
X60150000Y-91009000D01*
X62600000Y-91009000D01*
X62600000Y-90989000D01*
X62700000Y-90989000D01*
X62700000Y-91009000D01*
X62720000Y-91009000D01*
X62720000Y-91109000D01*
X62700000Y-91109000D01*
X62700000Y-91129000D01*
X62600000Y-91129000D01*
X62600000Y-91109000D01*
X60150000Y-91109000D01*
X60150000Y-91609000D01*
X60202309Y-91847000D01*
X60115969Y-91847000D01*
X59946855Y-91437714D01*
X59440949Y-90930924D01*
X58779613Y-90656313D01*
X58580958Y-90656140D01*
X59728097Y-89509000D01*
X60392285Y-89509000D01*
X60359435Y-89556097D01*
X60359435Y-89556097D01*
G37*
X60359435Y-89556097D02*
X60150000Y-90509000D01*
X60150000Y-91009000D01*
X62600000Y-91009000D01*
X62600000Y-90989000D01*
X62700000Y-90989000D01*
X62700000Y-91009000D01*
X62720000Y-91009000D01*
X62720000Y-91109000D01*
X62700000Y-91109000D01*
X62700000Y-91129000D01*
X62600000Y-91129000D01*
X62600000Y-91109000D01*
X60150000Y-91109000D01*
X60150000Y-91609000D01*
X60202309Y-91847000D01*
X60115969Y-91847000D01*
X59946855Y-91437714D01*
X59440949Y-90930924D01*
X58779613Y-90656313D01*
X58580958Y-90656140D01*
X59728097Y-89509000D01*
X60392285Y-89509000D01*
X60359435Y-89556097D01*
G36*
X105812353Y-54024358D02*
X105798211Y-54038500D01*
X105812353Y-54052642D01*
X105741642Y-54123353D01*
X105727500Y-54109211D01*
X105713358Y-54123353D01*
X105642647Y-54052642D01*
X105656789Y-54038500D01*
X105642647Y-54024358D01*
X105713358Y-53953647D01*
X105727500Y-53967789D01*
X105741642Y-53953647D01*
X105812353Y-54024358D01*
X105812353Y-54024358D01*
G37*
X105812353Y-54024358D02*
X105798211Y-54038500D01*
X105812353Y-54052642D01*
X105741642Y-54123353D01*
X105727500Y-54109211D01*
X105713358Y-54123353D01*
X105642647Y-54052642D01*
X105656789Y-54038500D01*
X105642647Y-54024358D01*
X105713358Y-53953647D01*
X105727500Y-53967789D01*
X105741642Y-53953647D01*
X105812353Y-54024358D01*
M02*
