G04 #@! TF.FileFunction,Legend,Top*
%FSLAX46Y46*%
G04 Gerber Fmt 4.6, Leading zero omitted, Abs format (unit mm)*
G04 Created by KiCad (PCBNEW 4.0.6-e0-6349~53~ubuntu16.04.1) date Sat Jul 15 19:45:57 2017*
%MOMM*%
%LPD*%
G01*
G04 APERTURE LIST*
%ADD10C,0.100000*%
%ADD11C,0.300000*%
%ADD12C,0.150000*%
G04 APERTURE END LIST*
D10*
D11*
X103612143Y-79271571D02*
X103612143Y-78128714D01*
X104183571Y-78700143D02*
X103040714Y-78700143D01*
X104183571Y-77343000D02*
X104183571Y-77057285D01*
X104112143Y-76914428D01*
X104040714Y-76843000D01*
X103826429Y-76700142D01*
X103540714Y-76628714D01*
X102969286Y-76628714D01*
X102826429Y-76700142D01*
X102755000Y-76771571D01*
X102683571Y-76914428D01*
X102683571Y-77200142D01*
X102755000Y-77343000D01*
X102826429Y-77414428D01*
X102969286Y-77485857D01*
X103326429Y-77485857D01*
X103469286Y-77414428D01*
X103540714Y-77343000D01*
X103612143Y-77200142D01*
X103612143Y-76914428D01*
X103540714Y-76771571D01*
X103469286Y-76700142D01*
X103326429Y-76628714D01*
X102683571Y-76200143D02*
X104183571Y-75700143D01*
X102683571Y-75200143D01*
X99961000Y-78358857D02*
X99889571Y-78501714D01*
X99889571Y-78716000D01*
X99961000Y-78930285D01*
X100103857Y-79073143D01*
X100246714Y-79144571D01*
X100532429Y-79216000D01*
X100746714Y-79216000D01*
X101032429Y-79144571D01*
X101175286Y-79073143D01*
X101318143Y-78930285D01*
X101389571Y-78716000D01*
X101389571Y-78573143D01*
X101318143Y-78358857D01*
X101246714Y-78287428D01*
X100746714Y-78287428D01*
X100746714Y-78573143D01*
X101389571Y-77644571D02*
X99889571Y-77644571D01*
X101389571Y-76787428D01*
X99889571Y-76787428D01*
X101389571Y-76073142D02*
X99889571Y-76073142D01*
X99889571Y-75715999D01*
X99961000Y-75501714D01*
X100103857Y-75358856D01*
X100246714Y-75287428D01*
X100532429Y-75215999D01*
X100746714Y-75215999D01*
X101032429Y-75287428D01*
X101175286Y-75358856D01*
X101318143Y-75501714D01*
X101389571Y-75715999D01*
X101389571Y-76073142D01*
X79188571Y-79200142D02*
X79188571Y-78271571D01*
X79760000Y-78771571D01*
X79760000Y-78557285D01*
X79831429Y-78414428D01*
X79902857Y-78342999D01*
X80045714Y-78271571D01*
X80402857Y-78271571D01*
X80545714Y-78342999D01*
X80617143Y-78414428D01*
X80688571Y-78557285D01*
X80688571Y-78985857D01*
X80617143Y-79128714D01*
X80545714Y-79200142D01*
X79188571Y-77843000D02*
X80688571Y-77343000D01*
X79188571Y-76843000D01*
X79188571Y-76485857D02*
X79188571Y-75557286D01*
X79760000Y-76057286D01*
X79760000Y-75843000D01*
X79831429Y-75700143D01*
X79902857Y-75628714D01*
X80045714Y-75557286D01*
X80402857Y-75557286D01*
X80545714Y-75628714D01*
X80617143Y-75700143D01*
X80688571Y-75843000D01*
X80688571Y-76271572D01*
X80617143Y-76414429D01*
X80545714Y-76485857D01*
X83355571Y-77719999D02*
X82641286Y-78219999D01*
X83355571Y-78577142D02*
X81855571Y-78577142D01*
X81855571Y-78005714D01*
X81927000Y-77862856D01*
X81998429Y-77791428D01*
X82141286Y-77719999D01*
X82355571Y-77719999D01*
X82498429Y-77791428D01*
X82569857Y-77862856D01*
X82641286Y-78005714D01*
X82641286Y-78577142D01*
X81855571Y-77219999D02*
X83355571Y-76219999D01*
X81855571Y-76219999D02*
X83355571Y-77219999D01*
X84522571Y-78739857D02*
X84522571Y-77882714D01*
X86022571Y-78311285D02*
X84522571Y-78311285D01*
X84522571Y-77525571D02*
X86022571Y-76525571D01*
X84522571Y-76525571D02*
X86022571Y-77525571D01*
X87134000Y-78739857D02*
X87062571Y-78882714D01*
X87062571Y-79097000D01*
X87134000Y-79311285D01*
X87276857Y-79454143D01*
X87419714Y-79525571D01*
X87705429Y-79597000D01*
X87919714Y-79597000D01*
X88205429Y-79525571D01*
X88348286Y-79454143D01*
X88491143Y-79311285D01*
X88562571Y-79097000D01*
X88562571Y-78954143D01*
X88491143Y-78739857D01*
X88419714Y-78668428D01*
X87919714Y-78668428D01*
X87919714Y-78954143D01*
X88562571Y-78025571D02*
X87062571Y-78025571D01*
X88562571Y-77168428D01*
X87062571Y-77168428D01*
X88562571Y-76454142D02*
X87062571Y-76454142D01*
X87062571Y-76096999D01*
X87134000Y-75882714D01*
X87276857Y-75739856D01*
X87419714Y-75668428D01*
X87705429Y-75596999D01*
X87919714Y-75596999D01*
X88205429Y-75668428D01*
X88348286Y-75739856D01*
X88491143Y-75882714D01*
X88562571Y-76096999D01*
X88562571Y-76454142D01*
X61829143Y-79398571D02*
X61829143Y-78255714D01*
X62400571Y-78827143D02*
X61257714Y-78827143D01*
X60900571Y-76827142D02*
X60900571Y-77541428D01*
X61614857Y-77612857D01*
X61543429Y-77541428D01*
X61472000Y-77398571D01*
X61472000Y-77041428D01*
X61543429Y-76898571D01*
X61614857Y-76827142D01*
X61757714Y-76755714D01*
X62114857Y-76755714D01*
X62257714Y-76827142D01*
X62329143Y-76898571D01*
X62400571Y-77041428D01*
X62400571Y-77398571D01*
X62329143Y-77541428D01*
X62257714Y-77612857D01*
X60900571Y-76327143D02*
X62400571Y-75827143D01*
X60900571Y-75327143D01*
X64813571Y-78664428D02*
X63313571Y-78664428D01*
X63313571Y-78307285D01*
X63385000Y-78093000D01*
X63527857Y-77950142D01*
X63670714Y-77878714D01*
X63956429Y-77807285D01*
X64170714Y-77807285D01*
X64456429Y-77878714D01*
X64599286Y-77950142D01*
X64742143Y-78093000D01*
X64813571Y-78307285D01*
X64813571Y-78664428D01*
X64242143Y-77164428D02*
X64242143Y-76021571D01*
X64813571Y-76593000D02*
X63670714Y-76593000D01*
X67607571Y-78664428D02*
X66107571Y-78664428D01*
X66107571Y-78307285D01*
X66179000Y-78093000D01*
X66321857Y-77950142D01*
X66464714Y-77878714D01*
X66750429Y-77807285D01*
X66964714Y-77807285D01*
X67250429Y-77878714D01*
X67393286Y-77950142D01*
X67536143Y-78093000D01*
X67607571Y-78307285D01*
X67607571Y-78664428D01*
X67036143Y-77164428D02*
X67036143Y-76021571D01*
X69100000Y-78231857D02*
X69028571Y-78374714D01*
X69028571Y-78589000D01*
X69100000Y-78803285D01*
X69242857Y-78946143D01*
X69385714Y-79017571D01*
X69671429Y-79089000D01*
X69885714Y-79089000D01*
X70171429Y-79017571D01*
X70314286Y-78946143D01*
X70457143Y-78803285D01*
X70528571Y-78589000D01*
X70528571Y-78446143D01*
X70457143Y-78231857D01*
X70385714Y-78160428D01*
X69885714Y-78160428D01*
X69885714Y-78446143D01*
X70528571Y-77517571D02*
X69028571Y-77517571D01*
X70528571Y-76660428D01*
X69028571Y-76660428D01*
X70528571Y-75946142D02*
X69028571Y-75946142D01*
X69028571Y-75588999D01*
X69100000Y-75374714D01*
X69242857Y-75231856D01*
X69385714Y-75160428D01*
X69671429Y-75088999D01*
X69885714Y-75088999D01*
X70171429Y-75160428D01*
X70314286Y-75231856D01*
X70457143Y-75374714D01*
X70528571Y-75588999D01*
X70528571Y-75946142D01*
D12*
X75272000Y-63111000D02*
X75272000Y-62111000D01*
X73572000Y-62111000D02*
X73572000Y-63111000D01*
X75470500Y-69878500D02*
X74770500Y-69878500D01*
X74770500Y-68678500D02*
X75470500Y-68678500D01*
X51597000Y-97632000D02*
X51597000Y-96932000D01*
X52797000Y-96932000D02*
X52797000Y-97632000D01*
X61884000Y-97505000D02*
X61884000Y-96805000D01*
X63084000Y-96805000D02*
X63084000Y-97505000D01*
X86649000Y-97505000D02*
X86649000Y-96805000D01*
X87849000Y-96805000D02*
X87849000Y-97505000D01*
X96555000Y-97505000D02*
X96555000Y-96805000D01*
X97755000Y-96805000D02*
X97755000Y-97505000D01*
X66865500Y-54038500D02*
X66865500Y-45402500D01*
X66865500Y-62420500D02*
X66865500Y-57340500D01*
X54673500Y-54038500D02*
X54673500Y-45402500D01*
X54673500Y-62420500D02*
X54673500Y-57340500D01*
X54673500Y-45402500D02*
X66865500Y-45402500D01*
X66865500Y-62420500D02*
X54673500Y-62420500D01*
X110045500Y-46926500D02*
X110045500Y-46164500D01*
X110045500Y-46164500D02*
X101409500Y-46164500D01*
X101409500Y-46164500D02*
X101409500Y-46926500D01*
X110045500Y-49974500D02*
X101409500Y-49974500D01*
X110045500Y-59626500D02*
X101409500Y-59626500D01*
X101409500Y-46926500D02*
X101409500Y-59626500D01*
X110045500Y-46926500D02*
X110045500Y-59626500D01*
X101981000Y-74422000D02*
X99441000Y-74422000D01*
X104801000Y-74702000D02*
X103251000Y-74702000D01*
X101981000Y-74422000D02*
X101981000Y-71882000D01*
X103251000Y-71602000D02*
X104801000Y-71602000D01*
X104801000Y-71602000D02*
X104801000Y-74702000D01*
X101981000Y-71882000D02*
X99441000Y-71882000D01*
X99441000Y-71882000D02*
X99441000Y-74422000D01*
X58031000Y-94865000D02*
X58031000Y-94365000D01*
X55761000Y-94865000D02*
X55761000Y-94365000D01*
X93210000Y-94992000D02*
X93210000Y-94492000D01*
X90940000Y-94992000D02*
X90940000Y-94492000D01*
X83534000Y-61317500D02*
X84034000Y-61817500D01*
X84034000Y-65817500D02*
X84034000Y-66317500D01*
X84034000Y-66317500D02*
X83534000Y-66317500D01*
X79034000Y-61817500D02*
X79034000Y-61317500D01*
X79034000Y-61317500D02*
X79534000Y-61317500D01*
X79034000Y-65817500D02*
X79034000Y-66317500D01*
X79034000Y-66317500D02*
X79534000Y-66317500D01*
X64746000Y-94924999D02*
X84606000Y-94925000D01*
X84606000Y-94925000D02*
X84606000Y-86685001D01*
X84606000Y-86685001D02*
X64746000Y-86685000D01*
X64746000Y-86685000D02*
X64746000Y-89431667D01*
X64746000Y-89431667D02*
X65196000Y-89431667D01*
X65196000Y-89431667D02*
X65196000Y-92178333D01*
X65196000Y-92178333D02*
X64746000Y-92178333D01*
X64746000Y-92178333D02*
X64746000Y-94924999D01*
X76879143Y-62777666D02*
X76926762Y-62825285D01*
X76974381Y-62968142D01*
X76974381Y-63063380D01*
X76926762Y-63206238D01*
X76831524Y-63301476D01*
X76736286Y-63349095D01*
X76545810Y-63396714D01*
X76402952Y-63396714D01*
X76212476Y-63349095D01*
X76117238Y-63301476D01*
X76022000Y-63206238D01*
X75974381Y-63063380D01*
X75974381Y-62968142D01*
X76022000Y-62825285D01*
X76069619Y-62777666D01*
X76974381Y-61825285D02*
X76974381Y-62396714D01*
X76974381Y-62111000D02*
X75974381Y-62111000D01*
X76117238Y-62206238D01*
X76212476Y-62301476D01*
X76260095Y-62396714D01*
X74953834Y-71535643D02*
X74906215Y-71583262D01*
X74763358Y-71630881D01*
X74668120Y-71630881D01*
X74525262Y-71583262D01*
X74430024Y-71488024D01*
X74382405Y-71392786D01*
X74334786Y-71202310D01*
X74334786Y-71059452D01*
X74382405Y-70868976D01*
X74430024Y-70773738D01*
X74525262Y-70678500D01*
X74668120Y-70630881D01*
X74763358Y-70630881D01*
X74906215Y-70678500D01*
X74953834Y-70726119D01*
X75334786Y-70726119D02*
X75382405Y-70678500D01*
X75477643Y-70630881D01*
X75715739Y-70630881D01*
X75810977Y-70678500D01*
X75858596Y-70726119D01*
X75906215Y-70821357D01*
X75906215Y-70916595D01*
X75858596Y-71059452D01*
X75287167Y-71630881D01*
X75906215Y-71630881D01*
X50654143Y-97448666D02*
X50701762Y-97496285D01*
X50749381Y-97639142D01*
X50749381Y-97734380D01*
X50701762Y-97877238D01*
X50606524Y-97972476D01*
X50511286Y-98020095D01*
X50320810Y-98067714D01*
X50177952Y-98067714D01*
X49987476Y-98020095D01*
X49892238Y-97972476D01*
X49797000Y-97877238D01*
X49749381Y-97734380D01*
X49749381Y-97639142D01*
X49797000Y-97496285D01*
X49844619Y-97448666D01*
X49749381Y-97115333D02*
X49749381Y-96496285D01*
X50130333Y-96829619D01*
X50130333Y-96686761D01*
X50177952Y-96591523D01*
X50225571Y-96543904D01*
X50320810Y-96496285D01*
X50558905Y-96496285D01*
X50654143Y-96543904D01*
X50701762Y-96591523D01*
X50749381Y-96686761D01*
X50749381Y-96972476D01*
X50701762Y-97067714D01*
X50654143Y-97115333D01*
X60941143Y-97321666D02*
X60988762Y-97369285D01*
X61036381Y-97512142D01*
X61036381Y-97607380D01*
X60988762Y-97750238D01*
X60893524Y-97845476D01*
X60798286Y-97893095D01*
X60607810Y-97940714D01*
X60464952Y-97940714D01*
X60274476Y-97893095D01*
X60179238Y-97845476D01*
X60084000Y-97750238D01*
X60036381Y-97607380D01*
X60036381Y-97512142D01*
X60084000Y-97369285D01*
X60131619Y-97321666D01*
X60369714Y-96464523D02*
X61036381Y-96464523D01*
X59988762Y-96702619D02*
X60703048Y-96940714D01*
X60703048Y-96321666D01*
X85706143Y-97321666D02*
X85753762Y-97369285D01*
X85801381Y-97512142D01*
X85801381Y-97607380D01*
X85753762Y-97750238D01*
X85658524Y-97845476D01*
X85563286Y-97893095D01*
X85372810Y-97940714D01*
X85229952Y-97940714D01*
X85039476Y-97893095D01*
X84944238Y-97845476D01*
X84849000Y-97750238D01*
X84801381Y-97607380D01*
X84801381Y-97512142D01*
X84849000Y-97369285D01*
X84896619Y-97321666D01*
X84801381Y-96416904D02*
X84801381Y-96893095D01*
X85277571Y-96940714D01*
X85229952Y-96893095D01*
X85182333Y-96797857D01*
X85182333Y-96559761D01*
X85229952Y-96464523D01*
X85277571Y-96416904D01*
X85372810Y-96369285D01*
X85610905Y-96369285D01*
X85706143Y-96416904D01*
X85753762Y-96464523D01*
X85801381Y-96559761D01*
X85801381Y-96797857D01*
X85753762Y-96893095D01*
X85706143Y-96940714D01*
X95612143Y-97321666D02*
X95659762Y-97369285D01*
X95707381Y-97512142D01*
X95707381Y-97607380D01*
X95659762Y-97750238D01*
X95564524Y-97845476D01*
X95469286Y-97893095D01*
X95278810Y-97940714D01*
X95135952Y-97940714D01*
X94945476Y-97893095D01*
X94850238Y-97845476D01*
X94755000Y-97750238D01*
X94707381Y-97607380D01*
X94707381Y-97512142D01*
X94755000Y-97369285D01*
X94802619Y-97321666D01*
X94707381Y-96464523D02*
X94707381Y-96655000D01*
X94755000Y-96750238D01*
X94802619Y-96797857D01*
X94945476Y-96893095D01*
X95135952Y-96940714D01*
X95516905Y-96940714D01*
X95612143Y-96893095D01*
X95659762Y-96845476D01*
X95707381Y-96750238D01*
X95707381Y-96559761D01*
X95659762Y-96464523D01*
X95612143Y-96416904D01*
X95516905Y-96369285D01*
X95278810Y-96369285D01*
X95183571Y-96416904D01*
X95135952Y-96464523D01*
X95088333Y-96559761D01*
X95088333Y-96750238D01*
X95135952Y-96845476D01*
X95183571Y-96893095D01*
X95278810Y-96940714D01*
X60436167Y-48791881D02*
X60436167Y-49506167D01*
X60388547Y-49649024D01*
X60293309Y-49744262D01*
X60150452Y-49791881D01*
X60055214Y-49791881D01*
X60864738Y-48887119D02*
X60912357Y-48839500D01*
X61007595Y-48791881D01*
X61245691Y-48791881D01*
X61340929Y-48839500D01*
X61388548Y-48887119D01*
X61436167Y-48982357D01*
X61436167Y-49077595D01*
X61388548Y-49220452D01*
X60817119Y-49791881D01*
X61436167Y-49791881D01*
X110767881Y-54625833D02*
X111482167Y-54625833D01*
X111625024Y-54673453D01*
X111720262Y-54768691D01*
X111767881Y-54911548D01*
X111767881Y-55006786D01*
X110767881Y-53673452D02*
X110767881Y-54149643D01*
X111244071Y-54197262D01*
X111196452Y-54149643D01*
X111148833Y-54054405D01*
X111148833Y-53816309D01*
X111196452Y-53721071D01*
X111244071Y-53673452D01*
X111339310Y-53625833D01*
X111577405Y-53625833D01*
X111672643Y-53673452D01*
X111720262Y-53721071D01*
X111767881Y-53816309D01*
X111767881Y-54054405D01*
X111720262Y-54149643D01*
X111672643Y-54197262D01*
X107803381Y-73485333D02*
X108517667Y-73485333D01*
X108660524Y-73532953D01*
X108755762Y-73628191D01*
X108803381Y-73771048D01*
X108803381Y-73866286D01*
X107803381Y-72580571D02*
X107803381Y-72771048D01*
X107851000Y-72866286D01*
X107898619Y-72913905D01*
X108041476Y-73009143D01*
X108231952Y-73056762D01*
X108612905Y-73056762D01*
X108708143Y-73009143D01*
X108755762Y-72961524D01*
X108803381Y-72866286D01*
X108803381Y-72675809D01*
X108755762Y-72580571D01*
X108708143Y-72532952D01*
X108612905Y-72485333D01*
X108374810Y-72485333D01*
X108279571Y-72532952D01*
X108231952Y-72580571D01*
X108184333Y-72675809D01*
X108184333Y-72866286D01*
X108231952Y-72961524D01*
X108279571Y-73009143D01*
X108374810Y-73056762D01*
X59448381Y-95305476D02*
X58972190Y-95638810D01*
X59448381Y-95876905D02*
X58448381Y-95876905D01*
X58448381Y-95495952D01*
X58496000Y-95400714D01*
X58543619Y-95353095D01*
X58638857Y-95305476D01*
X58781714Y-95305476D01*
X58876952Y-95353095D01*
X58924571Y-95400714D01*
X58972190Y-95495952D01*
X58972190Y-95876905D01*
X59448381Y-94876905D02*
X58448381Y-94876905D01*
X59448381Y-94305476D01*
X58448381Y-94305476D01*
X59448381Y-93305476D02*
X59448381Y-93876905D01*
X59448381Y-93591191D02*
X58448381Y-93591191D01*
X58591238Y-93686429D01*
X58686476Y-93781667D01*
X58734095Y-93876905D01*
X94627381Y-95432476D02*
X94151190Y-95765810D01*
X94627381Y-96003905D02*
X93627381Y-96003905D01*
X93627381Y-95622952D01*
X93675000Y-95527714D01*
X93722619Y-95480095D01*
X93817857Y-95432476D01*
X93960714Y-95432476D01*
X94055952Y-95480095D01*
X94103571Y-95527714D01*
X94151190Y-95622952D01*
X94151190Y-96003905D01*
X94627381Y-95003905D02*
X93627381Y-95003905D01*
X94627381Y-94432476D01*
X93627381Y-94432476D01*
X93722619Y-94003905D02*
X93675000Y-93956286D01*
X93627381Y-93861048D01*
X93627381Y-93622952D01*
X93675000Y-93527714D01*
X93722619Y-93480095D01*
X93817857Y-93432476D01*
X93913095Y-93432476D01*
X94055952Y-93480095D01*
X94627381Y-94051524D01*
X94627381Y-93432476D01*
X85376857Y-64731786D02*
X86348286Y-64731786D01*
X86462571Y-64674643D01*
X86519714Y-64617500D01*
X86576857Y-64503214D01*
X86576857Y-64274643D01*
X86519714Y-64160357D01*
X86462571Y-64103214D01*
X86348286Y-64046071D01*
X85376857Y-64046071D01*
X86576857Y-62846071D02*
X86576857Y-63531786D01*
X86576857Y-63188928D02*
X85376857Y-63188928D01*
X85548286Y-63303214D01*
X85662571Y-63417500D01*
X85719714Y-63531786D01*
X62888857Y-91205000D02*
X63746000Y-91205000D01*
X63917429Y-91262142D01*
X64031714Y-91376428D01*
X64088857Y-91547857D01*
X64088857Y-91662142D01*
X64088857Y-90004999D02*
X64088857Y-90690714D01*
X64088857Y-90347856D02*
X62888857Y-90347856D01*
X63060286Y-90462142D01*
X63174571Y-90576428D01*
X63231714Y-90690714D01*
X52666667Y-72451881D02*
X52333333Y-71975690D01*
X52095238Y-72451881D02*
X52095238Y-71451881D01*
X52476191Y-71451881D01*
X52571429Y-71499500D01*
X52619048Y-71547119D01*
X52666667Y-71642357D01*
X52666667Y-71785214D01*
X52619048Y-71880452D01*
X52571429Y-71928071D01*
X52476191Y-71975690D01*
X52095238Y-71975690D01*
X53095238Y-71928071D02*
X53428572Y-71928071D01*
X53571429Y-72451881D02*
X53095238Y-72451881D01*
X53095238Y-71451881D01*
X53571429Y-71451881D01*
X54333334Y-71928071D02*
X54000000Y-71928071D01*
X54000000Y-72451881D02*
X54000000Y-71451881D01*
X54476191Y-71451881D01*
X55000000Y-71451881D02*
X55000000Y-71689976D01*
X54761905Y-71594738D02*
X55000000Y-71689976D01*
X55238096Y-71594738D01*
X54857143Y-71880452D02*
X55000000Y-71689976D01*
X55142858Y-71880452D01*
X55761905Y-71451881D02*
X55761905Y-71689976D01*
X55523810Y-71594738D02*
X55761905Y-71689976D01*
X56000001Y-71594738D01*
X55619048Y-71880452D02*
X55761905Y-71689976D01*
X55904763Y-71880452D01*
X112666667Y-72451881D02*
X112333333Y-71975690D01*
X112095238Y-72451881D02*
X112095238Y-71451881D01*
X112476191Y-71451881D01*
X112571429Y-71499500D01*
X112619048Y-71547119D01*
X112666667Y-71642357D01*
X112666667Y-71785214D01*
X112619048Y-71880452D01*
X112571429Y-71928071D01*
X112476191Y-71975690D01*
X112095238Y-71975690D01*
X113095238Y-71928071D02*
X113428572Y-71928071D01*
X113571429Y-72451881D02*
X113095238Y-72451881D01*
X113095238Y-71451881D01*
X113571429Y-71451881D01*
X114333334Y-71928071D02*
X114000000Y-71928071D01*
X114000000Y-72451881D02*
X114000000Y-71451881D01*
X114476191Y-71451881D01*
X115000000Y-71451881D02*
X115000000Y-71689976D01*
X114761905Y-71594738D02*
X115000000Y-71689976D01*
X115238096Y-71594738D01*
X114857143Y-71880452D02*
X115000000Y-71689976D01*
X115142858Y-71880452D01*
X115761905Y-71451881D02*
X115761905Y-71689976D01*
X115523810Y-71594738D02*
X115761905Y-71689976D01*
X116000001Y-71594738D01*
X115619048Y-71880452D02*
X115761905Y-71689976D01*
X115904763Y-71880452D01*
M02*
