M48
;DRILL file {KiCad 4.0.6-e0-6349~53~ubuntu16.04.1} date Sat Jul 15 19:46:02 2017
;FORMAT={-:-/ absolute / inch / decimal}
FMAT,2
INCH,TZ
T1C0.016
T2C0.024
T3C0.031
T4C0.032
T5C0.039
T6C0.040
T7C0.091
T8C0.118
%
G90
G05
M72
T1
X2.19Y-3.645
X2.3Y-3.64
X2.46Y-3.75
X2.465Y-2.6875
X2.565Y-2.3875
X2.72Y-2.39
X2.73Y-2.285
X2.79Y-3.48
X3.01Y-2.34
X3.0375Y-2.72
X3.435Y-3.745
X3.615Y-3.505
X3.615Y-3.625
T2
X2.38Y-2.5175
X2.8575Y-2.515
X2.86Y-2.2425
T3
X2.0335Y-3.585
X2.1516Y-3.3094
X2.1516Y-3.8606
X2.25Y-3.8606
X2.3484Y-3.3094
X2.3484Y-3.8606
X2.4665Y-3.585
X3.4114Y-3.585
X3.5295Y-3.3094
X3.5295Y-3.8606
X3.628Y-3.8606
X3.7264Y-3.3094
X3.7264Y-3.8606
X3.8445Y-3.585
T4
X2.3425Y-2.2988
X2.3425Y-2.3775
X2.4425Y-2.2988
X2.4425Y-2.3775
T5
X2.74Y-3.525
X2.74Y-3.625
X2.84Y-3.525
X2.84Y-3.625
X2.94Y-3.525
X2.94Y-3.625
X3.04Y-3.525
X3.04Y-3.625
X3.14Y-3.525
X3.14Y-3.625
T6
X2.435Y-2.875
X2.535Y-2.875
X2.635Y-2.875
X2.735Y-2.875
X3.15Y-2.8775
X3.25Y-2.8775
X3.35Y-2.8775
X3.45Y-2.8775
X3.965Y-2.88
X4.065Y-2.88
T7
X2.1563Y-2.1925
X2.6287Y-2.1925
T8
X2.126Y-2.9921
X4.4882Y-2.9921
T6
X3.9625Y-2.1875G85X3.9625Y-2.2475
G05
X4.1925Y-2.1275G85X4.1325Y-2.1275
G05
X4.1925Y-2.3675G85X4.1325Y-2.3675
G05
T0
M30
