G04 #@! TF.FileFunction,Copper,L2,Bot,Signal*
%FSLAX46Y46*%
G04 Gerber Fmt 4.6, Leading zero omitted, Abs format (unit mm)*
G04 Created by KiCad (PCBNEW 4.0.6-e0-6349~53~ubuntu16.04.1) date Sat Jul 15 19:45:57 2017*
%MOMM*%
%LPD*%
G01*
G04 APERTURE LIST*
%ADD10C,0.100000*%
%ADD11O,2.000000X3.000000*%
%ADD12O,1.600000X2.000000*%
%ADD13C,1.524000*%
%ADD14C,2.700020*%
%ADD15R,1.727200X2.032000*%
%ADD16O,1.727200X2.032000*%
%ADD17C,4.800600*%
%ADD18R,4.800600X4.800600*%
%ADD19R,2.032000X2.032000*%
%ADD20O,2.032000X2.032000*%
%ADD21C,1.700000*%
%ADD22C,1.000000*%
%ADD23C,0.600000*%
%ADD24C,0.400000*%
%ADD25C,0.250000*%
%ADD26C,1.000000*%
G04 APERTURE END LIST*
D10*
D11*
X97650000Y-91059000D03*
D12*
X94650000Y-84059000D03*
X94650000Y-98059000D03*
X92150000Y-98059000D03*
X89650000Y-84059000D03*
X89650000Y-98059000D03*
D11*
X86650000Y-91059000D03*
D13*
X62039500Y-60388500D03*
X59499500Y-60388500D03*
X59499500Y-58389520D03*
X62039500Y-58389520D03*
D14*
X66768980Y-55689500D03*
X54770020Y-55689500D03*
D15*
X61849000Y-73025000D03*
D16*
X64389000Y-73025000D03*
X66929000Y-73025000D03*
X69469000Y-73025000D03*
D15*
X80010000Y-73088500D03*
D16*
X82550000Y-73088500D03*
X85090000Y-73088500D03*
X87630000Y-73088500D03*
D17*
X105727500Y-54038500D03*
D18*
X105727500Y-60134500D03*
D17*
X100647500Y-56324500D03*
D19*
X103251000Y-73152000D03*
D20*
X100711000Y-73152000D03*
D11*
X62650000Y-91059000D03*
D12*
X59650000Y-84059000D03*
X59650000Y-98059000D03*
X57150000Y-98059000D03*
X54650000Y-84059000D03*
X54650000Y-98059000D03*
D11*
X51650000Y-91059000D03*
D21*
X69596000Y-89535000D03*
X69596000Y-92075000D03*
X72136000Y-89535000D03*
X72136000Y-92075000D03*
X74676000Y-89535000D03*
X74676000Y-92075000D03*
X77216000Y-89535000D03*
X77216000Y-92075000D03*
X79756000Y-89535000D03*
X79756000Y-92075000D03*
D22*
X60452000Y-63944500D03*
X72644000Y-56959500D03*
X72580500Y-63881000D03*
D23*
X87249000Y-95123000D03*
X62484000Y-95250000D03*
X77152500Y-69088000D03*
X76454000Y-59436000D03*
X58420000Y-92456000D03*
X55626000Y-92583000D03*
X70866000Y-88392000D03*
X91821000Y-89027000D03*
X91821000Y-92075000D03*
X65151000Y-60642500D03*
X69088000Y-60706000D03*
X62611000Y-68262500D03*
X69342000Y-58039000D03*
D24*
X60452000Y-63944500D02*
X59499500Y-63944500D01*
X61849000Y-73025000D02*
X61849000Y-69596000D01*
X61849000Y-69596000D02*
X59499500Y-67246500D01*
X59499500Y-67246500D02*
X59499500Y-63944500D01*
X59499500Y-63944500D02*
X59499500Y-60388500D01*
X72644000Y-63817500D02*
X72644000Y-56959500D01*
X72580500Y-63881000D02*
X72644000Y-63817500D01*
D25*
X57150000Y-98059000D02*
X57150000Y-96559000D01*
X57150000Y-96559000D02*
X51650000Y-91059000D01*
X92150000Y-98059000D02*
X92150000Y-97865000D01*
X92150000Y-97865000D02*
X89408000Y-95123000D01*
X89408000Y-95123000D02*
X87249000Y-95123000D01*
X62650000Y-91059000D02*
X63754000Y-91059000D01*
X77343000Y-94488000D02*
X79756000Y-92075000D01*
X67183000Y-94488000D02*
X77343000Y-94488000D01*
X63754000Y-91059000D02*
X67183000Y-94488000D01*
X86650000Y-91059000D02*
X79756000Y-91059000D01*
X79756000Y-89535000D02*
X79756000Y-91059000D01*
X79756000Y-91059000D02*
X79756000Y-92075000D01*
X97650000Y-91059000D02*
X96650000Y-91059000D01*
X96650000Y-91059000D02*
X89650000Y-84059000D01*
X86650000Y-91059000D02*
X86650000Y-87059000D01*
X86650000Y-87059000D02*
X89650000Y-84059000D01*
X86650000Y-94524000D02*
X86650000Y-91059000D01*
X87249000Y-95123000D02*
X86650000Y-94524000D01*
X62650000Y-91059000D02*
X62650000Y-87059000D01*
X62650000Y-87059000D02*
X59650000Y-84059000D01*
X62650000Y-91059000D02*
X51650000Y-91059000D01*
X62650000Y-95084000D02*
X62650000Y-91059000D01*
X62484000Y-95250000D02*
X62650000Y-95084000D01*
X51689000Y-91059000D02*
X51650000Y-91059000D01*
X76390500Y-68326000D02*
X77152500Y-69088000D01*
X76390500Y-59499500D02*
X76390500Y-68326000D01*
X76454000Y-59436000D02*
X76390500Y-59499500D01*
X55753000Y-92456000D02*
X58420000Y-92456000D01*
X55626000Y-92583000D02*
X55753000Y-92456000D01*
X70866000Y-91186000D02*
X71755000Y-92075000D01*
X70866000Y-88392000D02*
X70866000Y-91186000D01*
X71755000Y-92075000D02*
X72136000Y-92075000D01*
X91821000Y-92075000D02*
X91821000Y-89027000D01*
X69024500Y-60642500D02*
X65151000Y-60642500D01*
X69088000Y-60706000D02*
X69024500Y-60642500D01*
D24*
X62039500Y-67691000D02*
X62039500Y-60388500D01*
X62611000Y-68262500D02*
X62039500Y-67691000D01*
D25*
X68991480Y-58389520D02*
X63787020Y-58389520D01*
X69342000Y-58039000D02*
X68991480Y-58389520D01*
D24*
X64389000Y-73025000D02*
X64389000Y-58991500D01*
X63787020Y-58389520D02*
X62039500Y-58389520D01*
X64389000Y-58991500D02*
X63787020Y-58389520D01*
D26*
G36*
X102481138Y-51741684D02*
X102059407Y-52687593D01*
X101426721Y-52424879D01*
X99875086Y-52423525D01*
X98441044Y-53016059D01*
X97342915Y-54112273D01*
X96747879Y-55545279D01*
X96746525Y-57096914D01*
X97339059Y-58530956D01*
X98435273Y-59629085D01*
X99868279Y-60224121D01*
X101419914Y-60225475D01*
X101797814Y-60069330D01*
X101797814Y-62534800D01*
X101902407Y-63090667D01*
X102230924Y-63601196D01*
X102732183Y-63943692D01*
X103327200Y-64064186D01*
X108127800Y-64064186D01*
X108683667Y-63959593D01*
X109194196Y-63631076D01*
X109536692Y-63129817D01*
X109657186Y-62534800D01*
X109657186Y-57734200D01*
X109552593Y-57178333D01*
X109224076Y-56667804D01*
X108813287Y-56387123D01*
X108973862Y-56335316D01*
X109605701Y-54918153D01*
X109647119Y-53367070D01*
X109091811Y-51918206D01*
X108973862Y-51741684D01*
X108534717Y-51600000D01*
X118400000Y-51600000D01*
X118400000Y-98400000D01*
X96931696Y-98400000D01*
X96950000Y-98307978D01*
X96950000Y-97810022D01*
X96774923Y-96929850D01*
X96276346Y-96183676D01*
X95530172Y-95685099D01*
X94650000Y-95510022D01*
X93769828Y-95685099D01*
X93363370Y-95956685D01*
X92983978Y-95714943D01*
X92559099Y-95595676D01*
X92200000Y-95934649D01*
X92200000Y-98009000D01*
X92220000Y-98009000D01*
X92220000Y-98109000D01*
X92200000Y-98109000D01*
X92200000Y-98129000D01*
X92100000Y-98129000D01*
X92100000Y-98109000D01*
X92080000Y-98109000D01*
X92080000Y-98009000D01*
X92100000Y-98009000D01*
X92100000Y-95934649D01*
X91740901Y-95595676D01*
X91316022Y-95714943D01*
X90936630Y-95956685D01*
X90530172Y-95685099D01*
X89650000Y-95510022D01*
X88769828Y-95685099D01*
X88023654Y-96183676D01*
X87525077Y-96929850D01*
X87350000Y-97810022D01*
X87350000Y-98307978D01*
X87368304Y-98400000D01*
X61931696Y-98400000D01*
X61950000Y-98307978D01*
X61950000Y-97810022D01*
X61774923Y-96929850D01*
X61276346Y-96183676D01*
X60530172Y-95685099D01*
X59650000Y-95510022D01*
X58769828Y-95685099D01*
X58363370Y-95956685D01*
X57983978Y-95714943D01*
X57559099Y-95595676D01*
X57200000Y-95934649D01*
X57200000Y-98009000D01*
X57220000Y-98009000D01*
X57220000Y-98109000D01*
X57200000Y-98109000D01*
X57200000Y-98129000D01*
X57100000Y-98129000D01*
X57100000Y-98109000D01*
X57080000Y-98109000D01*
X57080000Y-98009000D01*
X57100000Y-98009000D01*
X57100000Y-95934649D01*
X56740901Y-95595676D01*
X56316022Y-95714943D01*
X55936630Y-95956685D01*
X55530172Y-95685099D01*
X54650000Y-95510022D01*
X53769828Y-95685099D01*
X53023654Y-96183676D01*
X52525077Y-96929850D01*
X52350000Y-97810022D01*
X52350000Y-98307978D01*
X52368304Y-98400000D01*
X51600000Y-98400000D01*
X51600000Y-91109000D01*
X51700000Y-91109000D01*
X51700000Y-93683412D01*
X52090392Y-94019905D01*
X52560515Y-93887834D01*
X53382412Y-93362123D01*
X53825874Y-92726335D01*
X53825688Y-92939471D01*
X54099145Y-93601286D01*
X54605051Y-94108076D01*
X55266387Y-94382687D01*
X55982471Y-94383312D01*
X56644286Y-94109855D01*
X56673191Y-94081000D01*
X57639694Y-94081000D01*
X58060387Y-94255687D01*
X58776471Y-94256312D01*
X59438286Y-93982855D01*
X59945076Y-93476949D01*
X60219687Y-92815613D01*
X60220312Y-92099529D01*
X59946855Y-91437714D01*
X59618715Y-91109000D01*
X60150000Y-91109000D01*
X60150000Y-91609000D01*
X60359435Y-92561903D01*
X60917588Y-93362123D01*
X61739485Y-93887834D01*
X62209608Y-94019905D01*
X62600000Y-93683412D01*
X62600000Y-91109000D01*
X62700000Y-91109000D01*
X62700000Y-93683412D01*
X63090392Y-94019905D01*
X63560515Y-93887834D01*
X64382412Y-93362123D01*
X64940565Y-92561903D01*
X65150000Y-91609000D01*
X65150000Y-91109000D01*
X62700000Y-91109000D01*
X62600000Y-91109000D01*
X60150000Y-91109000D01*
X59618715Y-91109000D01*
X59440949Y-90930924D01*
X58779613Y-90656313D01*
X58063529Y-90655688D01*
X57639243Y-90831000D01*
X56100456Y-90831000D01*
X55985613Y-90783313D01*
X55269529Y-90782688D01*
X54607714Y-91056145D01*
X54150000Y-91513061D01*
X54150000Y-91109000D01*
X51700000Y-91109000D01*
X51600000Y-91109000D01*
X51600000Y-88434588D01*
X51700000Y-88434588D01*
X51700000Y-91009000D01*
X54150000Y-91009000D01*
X54150000Y-90509000D01*
X60150000Y-90509000D01*
X60150000Y-91009000D01*
X62600000Y-91009000D01*
X62600000Y-88434588D01*
X62700000Y-88434588D01*
X62700000Y-91009000D01*
X65150000Y-91009000D01*
X65150000Y-90509000D01*
X65038216Y-90000393D01*
X67245593Y-90000393D01*
X67578428Y-90805916D01*
X67246409Y-91605505D01*
X67245593Y-92540393D01*
X67602605Y-93404429D01*
X68263094Y-94066071D01*
X69126505Y-94424591D01*
X70061393Y-94425407D01*
X70866916Y-94092572D01*
X71666505Y-94424591D01*
X72601393Y-94425407D01*
X73406916Y-94092572D01*
X74206505Y-94424591D01*
X75141393Y-94425407D01*
X75946916Y-94092572D01*
X76746505Y-94424591D01*
X77681393Y-94425407D01*
X78495422Y-94089057D01*
X79245396Y-94416001D01*
X80180125Y-94433203D01*
X81050286Y-94091389D01*
X81123598Y-94042403D01*
X81149297Y-93539008D01*
X79756000Y-92145711D01*
X79741858Y-92159853D01*
X79671147Y-92089142D01*
X79685289Y-92075000D01*
X79671147Y-92060858D01*
X79741858Y-91990147D01*
X79756000Y-92004289D01*
X79770142Y-91990147D01*
X79840853Y-92060858D01*
X79826711Y-92075000D01*
X81220008Y-93468297D01*
X81723403Y-93442598D01*
X82097001Y-92585604D01*
X82114203Y-91650875D01*
X81901346Y-91109000D01*
X84150000Y-91109000D01*
X84150000Y-91609000D01*
X84359435Y-92561903D01*
X84917588Y-93362123D01*
X85739485Y-93887834D01*
X86209608Y-94019905D01*
X86600000Y-93683412D01*
X86600000Y-91109000D01*
X86700000Y-91109000D01*
X86700000Y-93683412D01*
X87090392Y-94019905D01*
X87560515Y-93887834D01*
X88382412Y-93362123D01*
X88940565Y-92561903D01*
X89150000Y-91609000D01*
X89150000Y-91109000D01*
X86700000Y-91109000D01*
X86600000Y-91109000D01*
X84150000Y-91109000D01*
X81901346Y-91109000D01*
X81774355Y-90785719D01*
X81894987Y-90509000D01*
X84150000Y-90509000D01*
X84150000Y-91009000D01*
X86600000Y-91009000D01*
X86600000Y-88434588D01*
X86700000Y-88434588D01*
X86700000Y-91009000D01*
X89150000Y-91009000D01*
X89150000Y-90509000D01*
X88940565Y-89556097D01*
X88820159Y-89383471D01*
X90020688Y-89383471D01*
X90196000Y-89807757D01*
X90196000Y-91294694D01*
X90021313Y-91715387D01*
X90020688Y-92431471D01*
X90294145Y-93093286D01*
X90800051Y-93600076D01*
X91461387Y-93874687D01*
X92177471Y-93875312D01*
X92839286Y-93601855D01*
X93346076Y-93095949D01*
X93620687Y-92434613D01*
X93621312Y-91718529D01*
X93446000Y-91294243D01*
X93446000Y-91109000D01*
X95150000Y-91109000D01*
X95150000Y-91609000D01*
X95359435Y-92561903D01*
X95917588Y-93362123D01*
X96739485Y-93887834D01*
X97209608Y-94019905D01*
X97600000Y-93683412D01*
X97600000Y-91109000D01*
X97700000Y-91109000D01*
X97700000Y-93683412D01*
X98090392Y-94019905D01*
X98560515Y-93887834D01*
X99382412Y-93362123D01*
X99940565Y-92561903D01*
X100150000Y-91609000D01*
X100150000Y-91109000D01*
X97700000Y-91109000D01*
X97600000Y-91109000D01*
X95150000Y-91109000D01*
X93446000Y-91109000D01*
X93446000Y-90509000D01*
X95150000Y-90509000D01*
X95150000Y-91009000D01*
X97600000Y-91009000D01*
X97600000Y-88434588D01*
X97700000Y-88434588D01*
X97700000Y-91009000D01*
X100150000Y-91009000D01*
X100150000Y-90509000D01*
X99940565Y-89556097D01*
X99382412Y-88755877D01*
X98560515Y-88230166D01*
X98090392Y-88098095D01*
X97700000Y-88434588D01*
X97600000Y-88434588D01*
X97209608Y-88098095D01*
X96739485Y-88230166D01*
X95917588Y-88755877D01*
X95359435Y-89556097D01*
X95150000Y-90509000D01*
X93446000Y-90509000D01*
X93446000Y-89807306D01*
X93620687Y-89386613D01*
X93621312Y-88670529D01*
X93347855Y-88008714D01*
X92841949Y-87501924D01*
X92180613Y-87227313D01*
X91464529Y-87226688D01*
X90802714Y-87500145D01*
X90295924Y-88006051D01*
X90021313Y-88667387D01*
X90020688Y-89383471D01*
X88820159Y-89383471D01*
X88382412Y-88755877D01*
X87560515Y-88230166D01*
X87090392Y-88098095D01*
X86700000Y-88434588D01*
X86600000Y-88434588D01*
X86209608Y-88098095D01*
X85739485Y-88230166D01*
X84917588Y-88755877D01*
X84359435Y-89556097D01*
X84150000Y-90509000D01*
X81894987Y-90509000D01*
X82097001Y-90045604D01*
X82114203Y-89110875D01*
X81772389Y-88240714D01*
X81723403Y-88167402D01*
X81220008Y-88141703D01*
X79826711Y-89535000D01*
X79840853Y-89549142D01*
X79770142Y-89619853D01*
X79756000Y-89605711D01*
X79741858Y-89619853D01*
X79671147Y-89549142D01*
X79685289Y-89535000D01*
X79671147Y-89520858D01*
X79741858Y-89450147D01*
X79756000Y-89464289D01*
X81149297Y-88070992D01*
X81123598Y-87567597D01*
X80266604Y-87193999D01*
X79331875Y-87176797D01*
X78475188Y-87513318D01*
X77685495Y-87185409D01*
X76750607Y-87184593D01*
X75945084Y-87517428D01*
X75145495Y-87185409D01*
X74210607Y-87184593D01*
X73405084Y-87517428D01*
X72605495Y-87185409D01*
X72204529Y-87185059D01*
X71886949Y-86866924D01*
X71225613Y-86592313D01*
X70509529Y-86591688D01*
X69847714Y-86865145D01*
X69527361Y-87184939D01*
X69130607Y-87184593D01*
X68266571Y-87541605D01*
X67604929Y-88202094D01*
X67246409Y-89065505D01*
X67245593Y-90000393D01*
X65038216Y-90000393D01*
X64940565Y-89556097D01*
X64382412Y-88755877D01*
X63560515Y-88230166D01*
X63090392Y-88098095D01*
X62700000Y-88434588D01*
X62600000Y-88434588D01*
X62209608Y-88098095D01*
X61739485Y-88230166D01*
X60917588Y-88755877D01*
X60359435Y-89556097D01*
X60150000Y-90509000D01*
X54150000Y-90509000D01*
X53940565Y-89556097D01*
X53382412Y-88755877D01*
X52560515Y-88230166D01*
X52090392Y-88098095D01*
X51700000Y-88434588D01*
X51600000Y-88434588D01*
X51600000Y-83810022D01*
X52350000Y-83810022D01*
X52350000Y-84307978D01*
X52525077Y-85188150D01*
X53023654Y-85934324D01*
X53769828Y-86432901D01*
X54650000Y-86607978D01*
X55530172Y-86432901D01*
X56276346Y-85934324D01*
X56774923Y-85188150D01*
X56950000Y-84307978D01*
X56950000Y-84109000D01*
X57350000Y-84109000D01*
X57350000Y-84309000D01*
X57544211Y-85185366D01*
X58059010Y-85920701D01*
X58816022Y-86403057D01*
X59240901Y-86522324D01*
X59600000Y-86183351D01*
X59600000Y-84109000D01*
X59700000Y-84109000D01*
X59700000Y-86183351D01*
X60059099Y-86522324D01*
X60483978Y-86403057D01*
X61240990Y-85920701D01*
X61755789Y-85185366D01*
X61950000Y-84309000D01*
X61950000Y-84109000D01*
X87350000Y-84109000D01*
X87350000Y-84309000D01*
X87544211Y-85185366D01*
X88059010Y-85920701D01*
X88816022Y-86403057D01*
X89240901Y-86522324D01*
X89600000Y-86183351D01*
X89600000Y-84109000D01*
X89700000Y-84109000D01*
X89700000Y-86183351D01*
X90059099Y-86522324D01*
X90483978Y-86403057D01*
X91240990Y-85920701D01*
X91755789Y-85185366D01*
X91950000Y-84309000D01*
X91950000Y-84109000D01*
X89700000Y-84109000D01*
X89600000Y-84109000D01*
X87350000Y-84109000D01*
X61950000Y-84109000D01*
X59700000Y-84109000D01*
X59600000Y-84109000D01*
X57350000Y-84109000D01*
X56950000Y-84109000D01*
X56950000Y-83810022D01*
X56949797Y-83809000D01*
X57350000Y-83809000D01*
X57350000Y-84009000D01*
X59600000Y-84009000D01*
X59600000Y-81934649D01*
X59700000Y-81934649D01*
X59700000Y-84009000D01*
X61950000Y-84009000D01*
X61950000Y-83809000D01*
X87350000Y-83809000D01*
X87350000Y-84009000D01*
X89600000Y-84009000D01*
X89600000Y-81934649D01*
X89700000Y-81934649D01*
X89700000Y-84009000D01*
X91950000Y-84009000D01*
X91950000Y-83810022D01*
X92350000Y-83810022D01*
X92350000Y-84307978D01*
X92525077Y-85188150D01*
X93023654Y-85934324D01*
X93769828Y-86432901D01*
X94650000Y-86607978D01*
X95530172Y-86432901D01*
X96276346Y-85934324D01*
X96774923Y-85188150D01*
X96950000Y-84307978D01*
X96950000Y-83810022D01*
X96774923Y-82929850D01*
X96276346Y-82183676D01*
X95530172Y-81685099D01*
X94650000Y-81510022D01*
X93769828Y-81685099D01*
X93023654Y-82183676D01*
X92525077Y-82929850D01*
X92350000Y-83810022D01*
X91950000Y-83810022D01*
X91950000Y-83809000D01*
X91755789Y-82932634D01*
X91240990Y-82197299D01*
X90483978Y-81714943D01*
X90059099Y-81595676D01*
X89700000Y-81934649D01*
X89600000Y-81934649D01*
X89240901Y-81595676D01*
X88816022Y-81714943D01*
X88059010Y-82197299D01*
X87544211Y-82932634D01*
X87350000Y-83809000D01*
X61950000Y-83809000D01*
X61755789Y-82932634D01*
X61240990Y-82197299D01*
X60483978Y-81714943D01*
X60059099Y-81595676D01*
X59700000Y-81934649D01*
X59600000Y-81934649D01*
X59240901Y-81595676D01*
X58816022Y-81714943D01*
X58059010Y-82197299D01*
X57544211Y-82932634D01*
X57350000Y-83809000D01*
X56949797Y-83809000D01*
X56774923Y-82929850D01*
X56276346Y-82183676D01*
X55530172Y-81685099D01*
X54650000Y-81510022D01*
X53769828Y-81685099D01*
X53023654Y-82183676D01*
X52525077Y-82929850D01*
X52350000Y-83810022D01*
X51600000Y-83810022D01*
X51600000Y-77842155D01*
X52298418Y-78541793D01*
X53400645Y-78999478D01*
X54594119Y-79000519D01*
X55697143Y-78544759D01*
X56541793Y-77701582D01*
X56999478Y-76599355D01*
X56999482Y-76594119D01*
X110999481Y-76594119D01*
X111455241Y-77697143D01*
X112298418Y-78541793D01*
X113400645Y-78999478D01*
X114594119Y-79000519D01*
X115697143Y-78544759D01*
X116541793Y-77701582D01*
X116999478Y-76599355D01*
X117000519Y-75405881D01*
X116544759Y-74302857D01*
X115701582Y-73458207D01*
X114599355Y-73000522D01*
X113405881Y-72999481D01*
X112302857Y-73455241D01*
X111458207Y-74298418D01*
X111000522Y-75400645D01*
X110999481Y-76594119D01*
X56999482Y-76594119D01*
X57000519Y-75405881D01*
X56544759Y-74302857D01*
X55701582Y-73458207D01*
X54599355Y-73000522D01*
X53405881Y-72999481D01*
X52302857Y-73455241D01*
X51600000Y-74156872D01*
X51600000Y-58799607D01*
X57229938Y-58799607D01*
X57463599Y-59393027D01*
X57237894Y-59936586D01*
X57237108Y-60836466D01*
X57580752Y-61668146D01*
X57799500Y-61887276D01*
X57799500Y-67246495D01*
X57799499Y-67246500D01*
X57928905Y-67897062D01*
X58297418Y-68448582D01*
X60149000Y-70300163D01*
X60149000Y-70764725D01*
X59919004Y-70912724D01*
X59576508Y-71413983D01*
X59456014Y-72009000D01*
X59456014Y-74041000D01*
X59560607Y-74596867D01*
X59889124Y-75107396D01*
X60390383Y-75449892D01*
X60985400Y-75570386D01*
X62712600Y-75570386D01*
X63268467Y-75465793D01*
X63420763Y-75367793D01*
X63484489Y-75410373D01*
X64389000Y-75590291D01*
X65293511Y-75410373D01*
X65659000Y-75166161D01*
X66024489Y-75410373D01*
X66929000Y-75590291D01*
X67833511Y-75410373D01*
X68236209Y-75141299D01*
X68610684Y-75380216D01*
X69049950Y-75503556D01*
X69419000Y-75165371D01*
X69419000Y-73075000D01*
X69519000Y-73075000D01*
X69519000Y-75165371D01*
X69888050Y-75503556D01*
X70327316Y-75380216D01*
X71104962Y-74884073D01*
X71633547Y-74128105D01*
X71832600Y-73227400D01*
X71832600Y-73075000D01*
X69519000Y-73075000D01*
X69419000Y-73075000D01*
X69399000Y-73075000D01*
X69399000Y-72975000D01*
X69419000Y-72975000D01*
X69419000Y-70884629D01*
X69519000Y-70884629D01*
X69519000Y-72975000D01*
X71832600Y-72975000D01*
X71832600Y-72822600D01*
X71666831Y-72072500D01*
X77617014Y-72072500D01*
X77617014Y-74104500D01*
X77721607Y-74660367D01*
X78050124Y-75170896D01*
X78551383Y-75513392D01*
X79146400Y-75633886D01*
X80873600Y-75633886D01*
X81429467Y-75529293D01*
X81581763Y-75431293D01*
X81645489Y-75473873D01*
X82550000Y-75653791D01*
X83454511Y-75473873D01*
X83820000Y-75229661D01*
X84185489Y-75473873D01*
X85090000Y-75653791D01*
X85994511Y-75473873D01*
X86397209Y-75204799D01*
X86771684Y-75443716D01*
X87210950Y-75567056D01*
X87580000Y-75228871D01*
X87580000Y-73138500D01*
X87680000Y-73138500D01*
X87680000Y-75228871D01*
X88049050Y-75567056D01*
X88488316Y-75443716D01*
X89265962Y-74947573D01*
X89794547Y-74191605D01*
X89926417Y-73594896D01*
X98234287Y-73594896D01*
X98592305Y-74508980D01*
X99272875Y-75216476D01*
X100172387Y-75609674D01*
X100268104Y-75628711D01*
X100661000Y-75292416D01*
X100661000Y-73202000D01*
X98570495Y-73202000D01*
X98234287Y-73594896D01*
X89926417Y-73594896D01*
X89993600Y-73290900D01*
X89993600Y-73138500D01*
X87680000Y-73138500D01*
X87580000Y-73138500D01*
X87560000Y-73138500D01*
X87560000Y-73038500D01*
X87580000Y-73038500D01*
X87580000Y-70948129D01*
X87680000Y-70948129D01*
X87680000Y-73038500D01*
X89993600Y-73038500D01*
X89993600Y-72886100D01*
X89954485Y-72709104D01*
X98234287Y-72709104D01*
X98570495Y-73102000D01*
X100661000Y-73102000D01*
X100661000Y-72136000D01*
X100705614Y-72136000D01*
X100705614Y-74168000D01*
X100761000Y-74462353D01*
X100761000Y-75292416D01*
X101153896Y-75628711D01*
X101249613Y-75609674D01*
X101516939Y-75492819D01*
X101639983Y-75576892D01*
X102235000Y-75697386D01*
X104267000Y-75697386D01*
X104822867Y-75592793D01*
X105333396Y-75264276D01*
X105675892Y-74763017D01*
X105796386Y-74168000D01*
X105796386Y-72136000D01*
X105691793Y-71580133D01*
X105363276Y-71069604D01*
X104862017Y-70727108D01*
X104267000Y-70606614D01*
X102235000Y-70606614D01*
X101679133Y-70711207D01*
X101521007Y-70812959D01*
X101249613Y-70694326D01*
X101153896Y-70675289D01*
X100761000Y-71011584D01*
X100761000Y-71862496D01*
X100705614Y-72136000D01*
X100661000Y-72136000D01*
X100661000Y-71011584D01*
X100268104Y-70675289D01*
X100172387Y-70694326D01*
X99272875Y-71087524D01*
X98592305Y-71795020D01*
X98234287Y-72709104D01*
X89954485Y-72709104D01*
X89794547Y-71985395D01*
X89265962Y-71229427D01*
X88488316Y-70733284D01*
X88049050Y-70609944D01*
X87680000Y-70948129D01*
X87580000Y-70948129D01*
X87210950Y-70609944D01*
X86771684Y-70733284D01*
X86397209Y-70972201D01*
X85994511Y-70703127D01*
X85090000Y-70523209D01*
X84185489Y-70703127D01*
X83820000Y-70947339D01*
X83454511Y-70703127D01*
X82550000Y-70523209D01*
X81645489Y-70703127D01*
X81585307Y-70743339D01*
X81468617Y-70663608D01*
X80873600Y-70543114D01*
X79146400Y-70543114D01*
X78590533Y-70647707D01*
X78080004Y-70976224D01*
X77737508Y-71477483D01*
X77617014Y-72072500D01*
X71666831Y-72072500D01*
X71633547Y-71921895D01*
X71104962Y-71165927D01*
X70327316Y-70669784D01*
X69888050Y-70546444D01*
X69519000Y-70884629D01*
X69419000Y-70884629D01*
X69049950Y-70546444D01*
X68610684Y-70669784D01*
X68236209Y-70908701D01*
X67833511Y-70639627D01*
X66929000Y-70459709D01*
X66089000Y-70626795D01*
X66089000Y-62267500D01*
X68154770Y-62267500D01*
X68728387Y-62505687D01*
X69444471Y-62506312D01*
X70106286Y-62232855D01*
X70613076Y-61726949D01*
X70887687Y-61065613D01*
X70888312Y-60349529D01*
X70658140Y-59792471D01*
X74653688Y-59792471D01*
X74765500Y-60063076D01*
X74765500Y-68325995D01*
X74765499Y-68326000D01*
X74845540Y-68728387D01*
X74889196Y-68947861D01*
X75223119Y-69447613D01*
X75241451Y-69475049D01*
X75451693Y-69685291D01*
X75625645Y-70106286D01*
X76131551Y-70613076D01*
X76792887Y-70887687D01*
X77508971Y-70888312D01*
X78170786Y-70614855D01*
X78677576Y-70108949D01*
X78952187Y-69447613D01*
X78952812Y-68731529D01*
X78679355Y-68069714D01*
X78173449Y-67562924D01*
X78015500Y-67497338D01*
X78015500Y-60369230D01*
X78253687Y-59795613D01*
X78254312Y-59079529D01*
X77980855Y-58417714D01*
X77474949Y-57910924D01*
X76813613Y-57636313D01*
X76097529Y-57635688D01*
X75435714Y-57909145D01*
X74928924Y-58415051D01*
X74654313Y-59076387D01*
X74653688Y-59792471D01*
X70658140Y-59792471D01*
X70614855Y-59687714D01*
X70426863Y-59499394D01*
X70867076Y-59059949D01*
X71141687Y-58398613D01*
X71142312Y-57682529D01*
X70868855Y-57020714D01*
X70362949Y-56513924D01*
X69701613Y-56239313D01*
X69607554Y-56239231D01*
X69630803Y-55185609D01*
X69220129Y-54128794D01*
X69148899Y-54022190D01*
X68593564Y-53935627D01*
X66839691Y-55689500D01*
X66853833Y-55703642D01*
X66783122Y-55774353D01*
X66768980Y-55760211D01*
X66754838Y-55774353D01*
X66684127Y-55703642D01*
X66698269Y-55689500D01*
X64944396Y-53935627D01*
X64389061Y-54022190D01*
X63932169Y-55059862D01*
X63907157Y-56193391D01*
X64126165Y-56756980D01*
X63787020Y-56689519D01*
X63787015Y-56689520D01*
X63538627Y-56689520D01*
X63322493Y-56473008D01*
X62491414Y-56127914D01*
X61591534Y-56127128D01*
X60759854Y-56470772D01*
X60759683Y-56470943D01*
X59989153Y-56135784D01*
X59089413Y-56119958D01*
X58252105Y-56449651D01*
X58184652Y-56494721D01*
X58169667Y-56988976D01*
X59307022Y-58126331D01*
X59165477Y-58126208D01*
X58098956Y-57059687D01*
X57604701Y-57074672D01*
X57245764Y-57899867D01*
X57229938Y-58799607D01*
X51600000Y-58799607D01*
X51600000Y-57514084D01*
X53016147Y-57514084D01*
X53102710Y-58069419D01*
X54140382Y-58526311D01*
X55273911Y-58551323D01*
X56330726Y-58140649D01*
X56437330Y-58069419D01*
X56523893Y-57514084D01*
X54770020Y-55760211D01*
X53016147Y-57514084D01*
X51600000Y-57514084D01*
X51600000Y-56193391D01*
X51908197Y-56193391D01*
X52318871Y-57250206D01*
X52390101Y-57356810D01*
X52945436Y-57443373D01*
X54699309Y-55689500D01*
X54840731Y-55689500D01*
X56594604Y-57443373D01*
X57149939Y-57356810D01*
X57606831Y-56319138D01*
X57631843Y-55185609D01*
X57221169Y-54128794D01*
X57149939Y-54022190D01*
X56594604Y-53935627D01*
X54840731Y-55689500D01*
X54699309Y-55689500D01*
X52945436Y-53935627D01*
X52390101Y-54022190D01*
X51933209Y-55059862D01*
X51908197Y-56193391D01*
X51600000Y-56193391D01*
X51600000Y-53864916D01*
X53016147Y-53864916D01*
X54770020Y-55618789D01*
X56523893Y-53864916D01*
X65015107Y-53864916D01*
X66768980Y-55618789D01*
X68522853Y-53864916D01*
X68436290Y-53309581D01*
X67398618Y-52852689D01*
X66265089Y-52827677D01*
X65208274Y-53238351D01*
X65101670Y-53309581D01*
X65015107Y-53864916D01*
X56523893Y-53864916D01*
X56437330Y-53309581D01*
X55399658Y-52852689D01*
X54266129Y-52827677D01*
X53209314Y-53238351D01*
X53102710Y-53309581D01*
X53016147Y-53864916D01*
X51600000Y-53864916D01*
X51600000Y-51600000D01*
X102920283Y-51600000D01*
X102481138Y-51741684D01*
X102481138Y-51741684D01*
G37*
X102481138Y-51741684D02*
X102059407Y-52687593D01*
X101426721Y-52424879D01*
X99875086Y-52423525D01*
X98441044Y-53016059D01*
X97342915Y-54112273D01*
X96747879Y-55545279D01*
X96746525Y-57096914D01*
X97339059Y-58530956D01*
X98435273Y-59629085D01*
X99868279Y-60224121D01*
X101419914Y-60225475D01*
X101797814Y-60069330D01*
X101797814Y-62534800D01*
X101902407Y-63090667D01*
X102230924Y-63601196D01*
X102732183Y-63943692D01*
X103327200Y-64064186D01*
X108127800Y-64064186D01*
X108683667Y-63959593D01*
X109194196Y-63631076D01*
X109536692Y-63129817D01*
X109657186Y-62534800D01*
X109657186Y-57734200D01*
X109552593Y-57178333D01*
X109224076Y-56667804D01*
X108813287Y-56387123D01*
X108973862Y-56335316D01*
X109605701Y-54918153D01*
X109647119Y-53367070D01*
X109091811Y-51918206D01*
X108973862Y-51741684D01*
X108534717Y-51600000D01*
X118400000Y-51600000D01*
X118400000Y-98400000D01*
X96931696Y-98400000D01*
X96950000Y-98307978D01*
X96950000Y-97810022D01*
X96774923Y-96929850D01*
X96276346Y-96183676D01*
X95530172Y-95685099D01*
X94650000Y-95510022D01*
X93769828Y-95685099D01*
X93363370Y-95956685D01*
X92983978Y-95714943D01*
X92559099Y-95595676D01*
X92200000Y-95934649D01*
X92200000Y-98009000D01*
X92220000Y-98009000D01*
X92220000Y-98109000D01*
X92200000Y-98109000D01*
X92200000Y-98129000D01*
X92100000Y-98129000D01*
X92100000Y-98109000D01*
X92080000Y-98109000D01*
X92080000Y-98009000D01*
X92100000Y-98009000D01*
X92100000Y-95934649D01*
X91740901Y-95595676D01*
X91316022Y-95714943D01*
X90936630Y-95956685D01*
X90530172Y-95685099D01*
X89650000Y-95510022D01*
X88769828Y-95685099D01*
X88023654Y-96183676D01*
X87525077Y-96929850D01*
X87350000Y-97810022D01*
X87350000Y-98307978D01*
X87368304Y-98400000D01*
X61931696Y-98400000D01*
X61950000Y-98307978D01*
X61950000Y-97810022D01*
X61774923Y-96929850D01*
X61276346Y-96183676D01*
X60530172Y-95685099D01*
X59650000Y-95510022D01*
X58769828Y-95685099D01*
X58363370Y-95956685D01*
X57983978Y-95714943D01*
X57559099Y-95595676D01*
X57200000Y-95934649D01*
X57200000Y-98009000D01*
X57220000Y-98009000D01*
X57220000Y-98109000D01*
X57200000Y-98109000D01*
X57200000Y-98129000D01*
X57100000Y-98129000D01*
X57100000Y-98109000D01*
X57080000Y-98109000D01*
X57080000Y-98009000D01*
X57100000Y-98009000D01*
X57100000Y-95934649D01*
X56740901Y-95595676D01*
X56316022Y-95714943D01*
X55936630Y-95956685D01*
X55530172Y-95685099D01*
X54650000Y-95510022D01*
X53769828Y-95685099D01*
X53023654Y-96183676D01*
X52525077Y-96929850D01*
X52350000Y-97810022D01*
X52350000Y-98307978D01*
X52368304Y-98400000D01*
X51600000Y-98400000D01*
X51600000Y-91109000D01*
X51700000Y-91109000D01*
X51700000Y-93683412D01*
X52090392Y-94019905D01*
X52560515Y-93887834D01*
X53382412Y-93362123D01*
X53825874Y-92726335D01*
X53825688Y-92939471D01*
X54099145Y-93601286D01*
X54605051Y-94108076D01*
X55266387Y-94382687D01*
X55982471Y-94383312D01*
X56644286Y-94109855D01*
X56673191Y-94081000D01*
X57639694Y-94081000D01*
X58060387Y-94255687D01*
X58776471Y-94256312D01*
X59438286Y-93982855D01*
X59945076Y-93476949D01*
X60219687Y-92815613D01*
X60220312Y-92099529D01*
X59946855Y-91437714D01*
X59618715Y-91109000D01*
X60150000Y-91109000D01*
X60150000Y-91609000D01*
X60359435Y-92561903D01*
X60917588Y-93362123D01*
X61739485Y-93887834D01*
X62209608Y-94019905D01*
X62600000Y-93683412D01*
X62600000Y-91109000D01*
X62700000Y-91109000D01*
X62700000Y-93683412D01*
X63090392Y-94019905D01*
X63560515Y-93887834D01*
X64382412Y-93362123D01*
X64940565Y-92561903D01*
X65150000Y-91609000D01*
X65150000Y-91109000D01*
X62700000Y-91109000D01*
X62600000Y-91109000D01*
X60150000Y-91109000D01*
X59618715Y-91109000D01*
X59440949Y-90930924D01*
X58779613Y-90656313D01*
X58063529Y-90655688D01*
X57639243Y-90831000D01*
X56100456Y-90831000D01*
X55985613Y-90783313D01*
X55269529Y-90782688D01*
X54607714Y-91056145D01*
X54150000Y-91513061D01*
X54150000Y-91109000D01*
X51700000Y-91109000D01*
X51600000Y-91109000D01*
X51600000Y-88434588D01*
X51700000Y-88434588D01*
X51700000Y-91009000D01*
X54150000Y-91009000D01*
X54150000Y-90509000D01*
X60150000Y-90509000D01*
X60150000Y-91009000D01*
X62600000Y-91009000D01*
X62600000Y-88434588D01*
X62700000Y-88434588D01*
X62700000Y-91009000D01*
X65150000Y-91009000D01*
X65150000Y-90509000D01*
X65038216Y-90000393D01*
X67245593Y-90000393D01*
X67578428Y-90805916D01*
X67246409Y-91605505D01*
X67245593Y-92540393D01*
X67602605Y-93404429D01*
X68263094Y-94066071D01*
X69126505Y-94424591D01*
X70061393Y-94425407D01*
X70866916Y-94092572D01*
X71666505Y-94424591D01*
X72601393Y-94425407D01*
X73406916Y-94092572D01*
X74206505Y-94424591D01*
X75141393Y-94425407D01*
X75946916Y-94092572D01*
X76746505Y-94424591D01*
X77681393Y-94425407D01*
X78495422Y-94089057D01*
X79245396Y-94416001D01*
X80180125Y-94433203D01*
X81050286Y-94091389D01*
X81123598Y-94042403D01*
X81149297Y-93539008D01*
X79756000Y-92145711D01*
X79741858Y-92159853D01*
X79671147Y-92089142D01*
X79685289Y-92075000D01*
X79671147Y-92060858D01*
X79741858Y-91990147D01*
X79756000Y-92004289D01*
X79770142Y-91990147D01*
X79840853Y-92060858D01*
X79826711Y-92075000D01*
X81220008Y-93468297D01*
X81723403Y-93442598D01*
X82097001Y-92585604D01*
X82114203Y-91650875D01*
X81901346Y-91109000D01*
X84150000Y-91109000D01*
X84150000Y-91609000D01*
X84359435Y-92561903D01*
X84917588Y-93362123D01*
X85739485Y-93887834D01*
X86209608Y-94019905D01*
X86600000Y-93683412D01*
X86600000Y-91109000D01*
X86700000Y-91109000D01*
X86700000Y-93683412D01*
X87090392Y-94019905D01*
X87560515Y-93887834D01*
X88382412Y-93362123D01*
X88940565Y-92561903D01*
X89150000Y-91609000D01*
X89150000Y-91109000D01*
X86700000Y-91109000D01*
X86600000Y-91109000D01*
X84150000Y-91109000D01*
X81901346Y-91109000D01*
X81774355Y-90785719D01*
X81894987Y-90509000D01*
X84150000Y-90509000D01*
X84150000Y-91009000D01*
X86600000Y-91009000D01*
X86600000Y-88434588D01*
X86700000Y-88434588D01*
X86700000Y-91009000D01*
X89150000Y-91009000D01*
X89150000Y-90509000D01*
X88940565Y-89556097D01*
X88820159Y-89383471D01*
X90020688Y-89383471D01*
X90196000Y-89807757D01*
X90196000Y-91294694D01*
X90021313Y-91715387D01*
X90020688Y-92431471D01*
X90294145Y-93093286D01*
X90800051Y-93600076D01*
X91461387Y-93874687D01*
X92177471Y-93875312D01*
X92839286Y-93601855D01*
X93346076Y-93095949D01*
X93620687Y-92434613D01*
X93621312Y-91718529D01*
X93446000Y-91294243D01*
X93446000Y-91109000D01*
X95150000Y-91109000D01*
X95150000Y-91609000D01*
X95359435Y-92561903D01*
X95917588Y-93362123D01*
X96739485Y-93887834D01*
X97209608Y-94019905D01*
X97600000Y-93683412D01*
X97600000Y-91109000D01*
X97700000Y-91109000D01*
X97700000Y-93683412D01*
X98090392Y-94019905D01*
X98560515Y-93887834D01*
X99382412Y-93362123D01*
X99940565Y-92561903D01*
X100150000Y-91609000D01*
X100150000Y-91109000D01*
X97700000Y-91109000D01*
X97600000Y-91109000D01*
X95150000Y-91109000D01*
X93446000Y-91109000D01*
X93446000Y-90509000D01*
X95150000Y-90509000D01*
X95150000Y-91009000D01*
X97600000Y-91009000D01*
X97600000Y-88434588D01*
X97700000Y-88434588D01*
X97700000Y-91009000D01*
X100150000Y-91009000D01*
X100150000Y-90509000D01*
X99940565Y-89556097D01*
X99382412Y-88755877D01*
X98560515Y-88230166D01*
X98090392Y-88098095D01*
X97700000Y-88434588D01*
X97600000Y-88434588D01*
X97209608Y-88098095D01*
X96739485Y-88230166D01*
X95917588Y-88755877D01*
X95359435Y-89556097D01*
X95150000Y-90509000D01*
X93446000Y-90509000D01*
X93446000Y-89807306D01*
X93620687Y-89386613D01*
X93621312Y-88670529D01*
X93347855Y-88008714D01*
X92841949Y-87501924D01*
X92180613Y-87227313D01*
X91464529Y-87226688D01*
X90802714Y-87500145D01*
X90295924Y-88006051D01*
X90021313Y-88667387D01*
X90020688Y-89383471D01*
X88820159Y-89383471D01*
X88382412Y-88755877D01*
X87560515Y-88230166D01*
X87090392Y-88098095D01*
X86700000Y-88434588D01*
X86600000Y-88434588D01*
X86209608Y-88098095D01*
X85739485Y-88230166D01*
X84917588Y-88755877D01*
X84359435Y-89556097D01*
X84150000Y-90509000D01*
X81894987Y-90509000D01*
X82097001Y-90045604D01*
X82114203Y-89110875D01*
X81772389Y-88240714D01*
X81723403Y-88167402D01*
X81220008Y-88141703D01*
X79826711Y-89535000D01*
X79840853Y-89549142D01*
X79770142Y-89619853D01*
X79756000Y-89605711D01*
X79741858Y-89619853D01*
X79671147Y-89549142D01*
X79685289Y-89535000D01*
X79671147Y-89520858D01*
X79741858Y-89450147D01*
X79756000Y-89464289D01*
X81149297Y-88070992D01*
X81123598Y-87567597D01*
X80266604Y-87193999D01*
X79331875Y-87176797D01*
X78475188Y-87513318D01*
X77685495Y-87185409D01*
X76750607Y-87184593D01*
X75945084Y-87517428D01*
X75145495Y-87185409D01*
X74210607Y-87184593D01*
X73405084Y-87517428D01*
X72605495Y-87185409D01*
X72204529Y-87185059D01*
X71886949Y-86866924D01*
X71225613Y-86592313D01*
X70509529Y-86591688D01*
X69847714Y-86865145D01*
X69527361Y-87184939D01*
X69130607Y-87184593D01*
X68266571Y-87541605D01*
X67604929Y-88202094D01*
X67246409Y-89065505D01*
X67245593Y-90000393D01*
X65038216Y-90000393D01*
X64940565Y-89556097D01*
X64382412Y-88755877D01*
X63560515Y-88230166D01*
X63090392Y-88098095D01*
X62700000Y-88434588D01*
X62600000Y-88434588D01*
X62209608Y-88098095D01*
X61739485Y-88230166D01*
X60917588Y-88755877D01*
X60359435Y-89556097D01*
X60150000Y-90509000D01*
X54150000Y-90509000D01*
X53940565Y-89556097D01*
X53382412Y-88755877D01*
X52560515Y-88230166D01*
X52090392Y-88098095D01*
X51700000Y-88434588D01*
X51600000Y-88434588D01*
X51600000Y-83810022D01*
X52350000Y-83810022D01*
X52350000Y-84307978D01*
X52525077Y-85188150D01*
X53023654Y-85934324D01*
X53769828Y-86432901D01*
X54650000Y-86607978D01*
X55530172Y-86432901D01*
X56276346Y-85934324D01*
X56774923Y-85188150D01*
X56950000Y-84307978D01*
X56950000Y-84109000D01*
X57350000Y-84109000D01*
X57350000Y-84309000D01*
X57544211Y-85185366D01*
X58059010Y-85920701D01*
X58816022Y-86403057D01*
X59240901Y-86522324D01*
X59600000Y-86183351D01*
X59600000Y-84109000D01*
X59700000Y-84109000D01*
X59700000Y-86183351D01*
X60059099Y-86522324D01*
X60483978Y-86403057D01*
X61240990Y-85920701D01*
X61755789Y-85185366D01*
X61950000Y-84309000D01*
X61950000Y-84109000D01*
X87350000Y-84109000D01*
X87350000Y-84309000D01*
X87544211Y-85185366D01*
X88059010Y-85920701D01*
X88816022Y-86403057D01*
X89240901Y-86522324D01*
X89600000Y-86183351D01*
X89600000Y-84109000D01*
X89700000Y-84109000D01*
X89700000Y-86183351D01*
X90059099Y-86522324D01*
X90483978Y-86403057D01*
X91240990Y-85920701D01*
X91755789Y-85185366D01*
X91950000Y-84309000D01*
X91950000Y-84109000D01*
X89700000Y-84109000D01*
X89600000Y-84109000D01*
X87350000Y-84109000D01*
X61950000Y-84109000D01*
X59700000Y-84109000D01*
X59600000Y-84109000D01*
X57350000Y-84109000D01*
X56950000Y-84109000D01*
X56950000Y-83810022D01*
X56949797Y-83809000D01*
X57350000Y-83809000D01*
X57350000Y-84009000D01*
X59600000Y-84009000D01*
X59600000Y-81934649D01*
X59700000Y-81934649D01*
X59700000Y-84009000D01*
X61950000Y-84009000D01*
X61950000Y-83809000D01*
X87350000Y-83809000D01*
X87350000Y-84009000D01*
X89600000Y-84009000D01*
X89600000Y-81934649D01*
X89700000Y-81934649D01*
X89700000Y-84009000D01*
X91950000Y-84009000D01*
X91950000Y-83810022D01*
X92350000Y-83810022D01*
X92350000Y-84307978D01*
X92525077Y-85188150D01*
X93023654Y-85934324D01*
X93769828Y-86432901D01*
X94650000Y-86607978D01*
X95530172Y-86432901D01*
X96276346Y-85934324D01*
X96774923Y-85188150D01*
X96950000Y-84307978D01*
X96950000Y-83810022D01*
X96774923Y-82929850D01*
X96276346Y-82183676D01*
X95530172Y-81685099D01*
X94650000Y-81510022D01*
X93769828Y-81685099D01*
X93023654Y-82183676D01*
X92525077Y-82929850D01*
X92350000Y-83810022D01*
X91950000Y-83810022D01*
X91950000Y-83809000D01*
X91755789Y-82932634D01*
X91240990Y-82197299D01*
X90483978Y-81714943D01*
X90059099Y-81595676D01*
X89700000Y-81934649D01*
X89600000Y-81934649D01*
X89240901Y-81595676D01*
X88816022Y-81714943D01*
X88059010Y-82197299D01*
X87544211Y-82932634D01*
X87350000Y-83809000D01*
X61950000Y-83809000D01*
X61755789Y-82932634D01*
X61240990Y-82197299D01*
X60483978Y-81714943D01*
X60059099Y-81595676D01*
X59700000Y-81934649D01*
X59600000Y-81934649D01*
X59240901Y-81595676D01*
X58816022Y-81714943D01*
X58059010Y-82197299D01*
X57544211Y-82932634D01*
X57350000Y-83809000D01*
X56949797Y-83809000D01*
X56774923Y-82929850D01*
X56276346Y-82183676D01*
X55530172Y-81685099D01*
X54650000Y-81510022D01*
X53769828Y-81685099D01*
X53023654Y-82183676D01*
X52525077Y-82929850D01*
X52350000Y-83810022D01*
X51600000Y-83810022D01*
X51600000Y-77842155D01*
X52298418Y-78541793D01*
X53400645Y-78999478D01*
X54594119Y-79000519D01*
X55697143Y-78544759D01*
X56541793Y-77701582D01*
X56999478Y-76599355D01*
X56999482Y-76594119D01*
X110999481Y-76594119D01*
X111455241Y-77697143D01*
X112298418Y-78541793D01*
X113400645Y-78999478D01*
X114594119Y-79000519D01*
X115697143Y-78544759D01*
X116541793Y-77701582D01*
X116999478Y-76599355D01*
X117000519Y-75405881D01*
X116544759Y-74302857D01*
X115701582Y-73458207D01*
X114599355Y-73000522D01*
X113405881Y-72999481D01*
X112302857Y-73455241D01*
X111458207Y-74298418D01*
X111000522Y-75400645D01*
X110999481Y-76594119D01*
X56999482Y-76594119D01*
X57000519Y-75405881D01*
X56544759Y-74302857D01*
X55701582Y-73458207D01*
X54599355Y-73000522D01*
X53405881Y-72999481D01*
X52302857Y-73455241D01*
X51600000Y-74156872D01*
X51600000Y-58799607D01*
X57229938Y-58799607D01*
X57463599Y-59393027D01*
X57237894Y-59936586D01*
X57237108Y-60836466D01*
X57580752Y-61668146D01*
X57799500Y-61887276D01*
X57799500Y-67246495D01*
X57799499Y-67246500D01*
X57928905Y-67897062D01*
X58297418Y-68448582D01*
X60149000Y-70300163D01*
X60149000Y-70764725D01*
X59919004Y-70912724D01*
X59576508Y-71413983D01*
X59456014Y-72009000D01*
X59456014Y-74041000D01*
X59560607Y-74596867D01*
X59889124Y-75107396D01*
X60390383Y-75449892D01*
X60985400Y-75570386D01*
X62712600Y-75570386D01*
X63268467Y-75465793D01*
X63420763Y-75367793D01*
X63484489Y-75410373D01*
X64389000Y-75590291D01*
X65293511Y-75410373D01*
X65659000Y-75166161D01*
X66024489Y-75410373D01*
X66929000Y-75590291D01*
X67833511Y-75410373D01*
X68236209Y-75141299D01*
X68610684Y-75380216D01*
X69049950Y-75503556D01*
X69419000Y-75165371D01*
X69419000Y-73075000D01*
X69519000Y-73075000D01*
X69519000Y-75165371D01*
X69888050Y-75503556D01*
X70327316Y-75380216D01*
X71104962Y-74884073D01*
X71633547Y-74128105D01*
X71832600Y-73227400D01*
X71832600Y-73075000D01*
X69519000Y-73075000D01*
X69419000Y-73075000D01*
X69399000Y-73075000D01*
X69399000Y-72975000D01*
X69419000Y-72975000D01*
X69419000Y-70884629D01*
X69519000Y-70884629D01*
X69519000Y-72975000D01*
X71832600Y-72975000D01*
X71832600Y-72822600D01*
X71666831Y-72072500D01*
X77617014Y-72072500D01*
X77617014Y-74104500D01*
X77721607Y-74660367D01*
X78050124Y-75170896D01*
X78551383Y-75513392D01*
X79146400Y-75633886D01*
X80873600Y-75633886D01*
X81429467Y-75529293D01*
X81581763Y-75431293D01*
X81645489Y-75473873D01*
X82550000Y-75653791D01*
X83454511Y-75473873D01*
X83820000Y-75229661D01*
X84185489Y-75473873D01*
X85090000Y-75653791D01*
X85994511Y-75473873D01*
X86397209Y-75204799D01*
X86771684Y-75443716D01*
X87210950Y-75567056D01*
X87580000Y-75228871D01*
X87580000Y-73138500D01*
X87680000Y-73138500D01*
X87680000Y-75228871D01*
X88049050Y-75567056D01*
X88488316Y-75443716D01*
X89265962Y-74947573D01*
X89794547Y-74191605D01*
X89926417Y-73594896D01*
X98234287Y-73594896D01*
X98592305Y-74508980D01*
X99272875Y-75216476D01*
X100172387Y-75609674D01*
X100268104Y-75628711D01*
X100661000Y-75292416D01*
X100661000Y-73202000D01*
X98570495Y-73202000D01*
X98234287Y-73594896D01*
X89926417Y-73594896D01*
X89993600Y-73290900D01*
X89993600Y-73138500D01*
X87680000Y-73138500D01*
X87580000Y-73138500D01*
X87560000Y-73138500D01*
X87560000Y-73038500D01*
X87580000Y-73038500D01*
X87580000Y-70948129D01*
X87680000Y-70948129D01*
X87680000Y-73038500D01*
X89993600Y-73038500D01*
X89993600Y-72886100D01*
X89954485Y-72709104D01*
X98234287Y-72709104D01*
X98570495Y-73102000D01*
X100661000Y-73102000D01*
X100661000Y-72136000D01*
X100705614Y-72136000D01*
X100705614Y-74168000D01*
X100761000Y-74462353D01*
X100761000Y-75292416D01*
X101153896Y-75628711D01*
X101249613Y-75609674D01*
X101516939Y-75492819D01*
X101639983Y-75576892D01*
X102235000Y-75697386D01*
X104267000Y-75697386D01*
X104822867Y-75592793D01*
X105333396Y-75264276D01*
X105675892Y-74763017D01*
X105796386Y-74168000D01*
X105796386Y-72136000D01*
X105691793Y-71580133D01*
X105363276Y-71069604D01*
X104862017Y-70727108D01*
X104267000Y-70606614D01*
X102235000Y-70606614D01*
X101679133Y-70711207D01*
X101521007Y-70812959D01*
X101249613Y-70694326D01*
X101153896Y-70675289D01*
X100761000Y-71011584D01*
X100761000Y-71862496D01*
X100705614Y-72136000D01*
X100661000Y-72136000D01*
X100661000Y-71011584D01*
X100268104Y-70675289D01*
X100172387Y-70694326D01*
X99272875Y-71087524D01*
X98592305Y-71795020D01*
X98234287Y-72709104D01*
X89954485Y-72709104D01*
X89794547Y-71985395D01*
X89265962Y-71229427D01*
X88488316Y-70733284D01*
X88049050Y-70609944D01*
X87680000Y-70948129D01*
X87580000Y-70948129D01*
X87210950Y-70609944D01*
X86771684Y-70733284D01*
X86397209Y-70972201D01*
X85994511Y-70703127D01*
X85090000Y-70523209D01*
X84185489Y-70703127D01*
X83820000Y-70947339D01*
X83454511Y-70703127D01*
X82550000Y-70523209D01*
X81645489Y-70703127D01*
X81585307Y-70743339D01*
X81468617Y-70663608D01*
X80873600Y-70543114D01*
X79146400Y-70543114D01*
X78590533Y-70647707D01*
X78080004Y-70976224D01*
X77737508Y-71477483D01*
X77617014Y-72072500D01*
X71666831Y-72072500D01*
X71633547Y-71921895D01*
X71104962Y-71165927D01*
X70327316Y-70669784D01*
X69888050Y-70546444D01*
X69519000Y-70884629D01*
X69419000Y-70884629D01*
X69049950Y-70546444D01*
X68610684Y-70669784D01*
X68236209Y-70908701D01*
X67833511Y-70639627D01*
X66929000Y-70459709D01*
X66089000Y-70626795D01*
X66089000Y-62267500D01*
X68154770Y-62267500D01*
X68728387Y-62505687D01*
X69444471Y-62506312D01*
X70106286Y-62232855D01*
X70613076Y-61726949D01*
X70887687Y-61065613D01*
X70888312Y-60349529D01*
X70658140Y-59792471D01*
X74653688Y-59792471D01*
X74765500Y-60063076D01*
X74765500Y-68325995D01*
X74765499Y-68326000D01*
X74845540Y-68728387D01*
X74889196Y-68947861D01*
X75223119Y-69447613D01*
X75241451Y-69475049D01*
X75451693Y-69685291D01*
X75625645Y-70106286D01*
X76131551Y-70613076D01*
X76792887Y-70887687D01*
X77508971Y-70888312D01*
X78170786Y-70614855D01*
X78677576Y-70108949D01*
X78952187Y-69447613D01*
X78952812Y-68731529D01*
X78679355Y-68069714D01*
X78173449Y-67562924D01*
X78015500Y-67497338D01*
X78015500Y-60369230D01*
X78253687Y-59795613D01*
X78254312Y-59079529D01*
X77980855Y-58417714D01*
X77474949Y-57910924D01*
X76813613Y-57636313D01*
X76097529Y-57635688D01*
X75435714Y-57909145D01*
X74928924Y-58415051D01*
X74654313Y-59076387D01*
X74653688Y-59792471D01*
X70658140Y-59792471D01*
X70614855Y-59687714D01*
X70426863Y-59499394D01*
X70867076Y-59059949D01*
X71141687Y-58398613D01*
X71142312Y-57682529D01*
X70868855Y-57020714D01*
X70362949Y-56513924D01*
X69701613Y-56239313D01*
X69607554Y-56239231D01*
X69630803Y-55185609D01*
X69220129Y-54128794D01*
X69148899Y-54022190D01*
X68593564Y-53935627D01*
X66839691Y-55689500D01*
X66853833Y-55703642D01*
X66783122Y-55774353D01*
X66768980Y-55760211D01*
X66754838Y-55774353D01*
X66684127Y-55703642D01*
X66698269Y-55689500D01*
X64944396Y-53935627D01*
X64389061Y-54022190D01*
X63932169Y-55059862D01*
X63907157Y-56193391D01*
X64126165Y-56756980D01*
X63787020Y-56689519D01*
X63787015Y-56689520D01*
X63538627Y-56689520D01*
X63322493Y-56473008D01*
X62491414Y-56127914D01*
X61591534Y-56127128D01*
X60759854Y-56470772D01*
X60759683Y-56470943D01*
X59989153Y-56135784D01*
X59089413Y-56119958D01*
X58252105Y-56449651D01*
X58184652Y-56494721D01*
X58169667Y-56988976D01*
X59307022Y-58126331D01*
X59165477Y-58126208D01*
X58098956Y-57059687D01*
X57604701Y-57074672D01*
X57245764Y-57899867D01*
X57229938Y-58799607D01*
X51600000Y-58799607D01*
X51600000Y-57514084D01*
X53016147Y-57514084D01*
X53102710Y-58069419D01*
X54140382Y-58526311D01*
X55273911Y-58551323D01*
X56330726Y-58140649D01*
X56437330Y-58069419D01*
X56523893Y-57514084D01*
X54770020Y-55760211D01*
X53016147Y-57514084D01*
X51600000Y-57514084D01*
X51600000Y-56193391D01*
X51908197Y-56193391D01*
X52318871Y-57250206D01*
X52390101Y-57356810D01*
X52945436Y-57443373D01*
X54699309Y-55689500D01*
X54840731Y-55689500D01*
X56594604Y-57443373D01*
X57149939Y-57356810D01*
X57606831Y-56319138D01*
X57631843Y-55185609D01*
X57221169Y-54128794D01*
X57149939Y-54022190D01*
X56594604Y-53935627D01*
X54840731Y-55689500D01*
X54699309Y-55689500D01*
X52945436Y-53935627D01*
X52390101Y-54022190D01*
X51933209Y-55059862D01*
X51908197Y-56193391D01*
X51600000Y-56193391D01*
X51600000Y-53864916D01*
X53016147Y-53864916D01*
X54770020Y-55618789D01*
X56523893Y-53864916D01*
X65015107Y-53864916D01*
X66768980Y-55618789D01*
X68522853Y-53864916D01*
X68436290Y-53309581D01*
X67398618Y-52852689D01*
X66265089Y-52827677D01*
X65208274Y-53238351D01*
X65101670Y-53309581D01*
X65015107Y-53864916D01*
X56523893Y-53864916D01*
X56437330Y-53309581D01*
X55399658Y-52852689D01*
X54266129Y-52827677D01*
X53209314Y-53238351D01*
X53102710Y-53309581D01*
X53016147Y-53864916D01*
X51600000Y-53864916D01*
X51600000Y-51600000D01*
X102920283Y-51600000D01*
X102481138Y-51741684D01*
G36*
X105812353Y-54024358D02*
X105798211Y-54038500D01*
X105812353Y-54052642D01*
X105741642Y-54123353D01*
X105727500Y-54109211D01*
X105713358Y-54123353D01*
X105642647Y-54052642D01*
X105656789Y-54038500D01*
X105642647Y-54024358D01*
X105713358Y-53953647D01*
X105727500Y-53967789D01*
X105741642Y-53953647D01*
X105812353Y-54024358D01*
X105812353Y-54024358D01*
G37*
X105812353Y-54024358D02*
X105798211Y-54038500D01*
X105812353Y-54052642D01*
X105741642Y-54123353D01*
X105727500Y-54109211D01*
X105713358Y-54123353D01*
X105642647Y-54052642D01*
X105656789Y-54038500D01*
X105642647Y-54024358D01*
X105713358Y-53953647D01*
X105727500Y-53967789D01*
X105741642Y-53953647D01*
X105812353Y-54024358D01*
M02*
