G04 #@! TF.FileFunction,Soldermask,Bot*
%FSLAX46Y46*%
G04 Gerber Fmt 4.6, Leading zero omitted, Abs format (unit mm)*
G04 Created by KiCad (PCBNEW 4.0.6-e0-6349~53~ubuntu16.04.1) date Sat Jul 15 19:45:57 2017*
%MOMM*%
%LPD*%
G01*
G04 APERTURE LIST*
%ADD10C,0.100000*%
%ADD11O,2.000000X3.000000*%
%ADD12O,1.600000X2.000000*%
%ADD13C,1.524000*%
%ADD14C,2.700020*%
%ADD15R,1.727200X2.032000*%
%ADD16O,1.727200X2.032000*%
%ADD17C,4.800600*%
%ADD18R,4.800600X4.800600*%
%ADD19R,2.032000X2.032000*%
%ADD20O,2.032000X2.032000*%
%ADD21C,1.700000*%
G04 APERTURE END LIST*
D10*
D11*
X97650000Y-91059000D03*
D12*
X94650000Y-84059000D03*
X94650000Y-98059000D03*
X92150000Y-98059000D03*
X89650000Y-84059000D03*
X89650000Y-98059000D03*
D11*
X86650000Y-91059000D03*
D13*
X62039500Y-60388500D03*
X59499500Y-60388500D03*
X59499500Y-58389520D03*
X62039500Y-58389520D03*
D14*
X66768980Y-55689500D03*
X54770020Y-55689500D03*
D15*
X61849000Y-73025000D03*
D16*
X64389000Y-73025000D03*
X66929000Y-73025000D03*
X69469000Y-73025000D03*
D15*
X80010000Y-73088500D03*
D16*
X82550000Y-73088500D03*
X85090000Y-73088500D03*
X87630000Y-73088500D03*
D17*
X105727500Y-54038500D03*
D18*
X105727500Y-60134500D03*
D17*
X100647500Y-56324500D03*
D19*
X103251000Y-73152000D03*
D20*
X100711000Y-73152000D03*
D11*
X62650000Y-91059000D03*
D12*
X59650000Y-84059000D03*
X59650000Y-98059000D03*
X57150000Y-98059000D03*
X54650000Y-84059000D03*
X54650000Y-98059000D03*
D11*
X51650000Y-91059000D03*
D21*
X69596000Y-89535000D03*
X69596000Y-92075000D03*
X72136000Y-89535000D03*
X72136000Y-92075000D03*
X74676000Y-89535000D03*
X74676000Y-92075000D03*
X77216000Y-89535000D03*
X77216000Y-92075000D03*
X79756000Y-89535000D03*
X79756000Y-92075000D03*
M02*
